<?xml version="1.0" standalone="no"?>
<!DOCTYPE svg PUBLIC "-//W3C//DTD SVG 20010904//EN"
 "http://www.w3.org/TR/2001/REC-SVG-20010904/DTD/svg10.dtd">
<svg version="1.0" xmlns="http://www.w3.org/2000/svg"
 width="1920.000000pt" height="966.000000pt" viewBox="0 0 1920.000000 966.000000"
 preserveAspectRatio="xMidYMid meet">

<g transform="translate(0.000000,966.000000) scale(0.100000,-0.100000)"
fill="#000000" stroke="none">
<path d="M0 4830 l0 -4830 9600 0 9600 0 0 4830 0 4830 -9600 0 -9600 0 0
-4830z m3050 4655 c0 -15 -14 -41 -33 -62 l-34 -36 13 -56 c12 -49 11 -58 -2
-71 -14 -13 -19 -11 -48 24 -33 38 -56 42 -56 8 0 -9 -4 -23 -9 -31 -8 -12
-17 -7 -49 25 -42 42 -44 64 -7 64 12 0 28 6 34 14 9 11 4 18 -24 35 -32 19
-47 53 -27 64 4 3 33 0 64 -6 56 -10 57 -10 93 21 45 40 85 43 85 7z m391 -77
c0 -42 0 -42 16 -20 8 12 22 22 29 22 18 0 18 -9 -2 -31 -15 -17 -14 -20 6
-48 18 -27 19 -31 5 -31 -9 0 -25 10 -36 23 l-18 22 -1 -22 c0 -14 -6 -23 -15
-23 -12 0 -15 15 -15 75 0 60 3 75 15 75 11 0 15 -12 16 -42z m539 -32 l0 -73
-44 -1 c-40 -1 -45 2 -56 28 -20 49 25 101 58 68 9 -9 12 -5 12 20 0 22 5 32
15 32 12 0 15 -15 15 -74z m-710 50 c20 -25 8 -60 -27 -76 -18 -8 -33 -23 -33
-32 0 -10 -7 -18 -15 -18 -12 0 -15 14 -15 70 l0 70 39 0 c21 0 44 -6 51 -14z
m334 8 c9 -3 16 -12 16 -20 0 -16 -16 -19 -25 -4 -10 16 -45 12 -45 -5 0 -9
12 -18 30 -21 42 -9 56 -28 42 -59 -9 -18 -19 -25 -41 -25 -39 0 -61 9 -61 26
0 17 5 17 29 2 19 -12 51 -5 51 10 0 5 -18 16 -40 25 -27 10 -40 22 -40 34 0
36 40 54 84 37z m498 -11 c22 -20 23 -51 1 -75 -32 -36 -103 -12 -103 35 0 49
64 75 102 40z m2520 10 c-27 -4 -33 -8 -30 -26 2 -13 13 -24 28 -28 l25 -7
-27 -1 c-21 -1 -28 -7 -31 -28 -2 -16 -5 0 -6 35 l-1 62 38 -2 37 -1 -33 -4z
m266 -42 c23 21 24 21 9 2 -18 -20 -18 -22 -1 -50 l18 -28 -26 23 -26 24 -5
-24 c-2 -12 -4 6 -4 42 0 38 2 49 4 26 l4 -38 27 23z m832 22 l1 -28 22 28
c13 15 27 27 32 27 4 0 -2 -11 -15 -25 l-24 -25 23 -31 c13 -17 20 -33 18 -36
-3 -2 -13 7 -22 21 -22 33 -35 33 -35 1 0 -14 -4 -25 -10 -25 -6 0 -10 27 -10
60 0 33 4 60 10 60 6 0 10 -12 10 -27z m330 -31 c0 -57 0 -58 -30 -60 -24 -2
-32 3 -39 20 -14 39 8 73 42 62 12 -4 17 0 17 15 0 12 2 21 5 21 3 0 5 -26 5
-58z m1208 46 c22 -22 14 -49 -18 -61 -16 -6 -31 -20 -33 -32 -2 -11 -5 8 -6
43 -1 58 0 62 22 62 13 0 28 -5 35 -12z m772 -3 c10 -12 10 -21 1 -41 -9 -20
-9 -30 0 -40 7 -8 10 -17 7 -20 -3 -2 -13 7 -22 21 -21 32 -36 32 -36 0 0 -14
-4 -25 -10 -25 -6 0 -10 27 -10 60 0 59 0 60 29 60 16 0 34 -7 41 -15z m220
-3 c0 -13 7 -18 23 -18 19 1 22 -4 23 -44 l2 -45 -7 40 c-8 53 -35 55 -39 3
-5 -61 -22 -44 -22 22 0 33 4 60 10 60 6 0 10 -8 10 -18z m-3291 -20 c-14 -5
-11 -70 4 -75 7 -3 5 -6 -5 -6 -14 -1 -18 7 -18 33 0 19 -4 38 -10 41 -6 4 -5
11 2 19 9 9 16 10 24 2 7 -6 8 -12 3 -14z m1400 0 c-14 -5 -11 -70 4 -75 7 -3
5 -6 -5 -6 -14 -1 -18 7 -18 33 0 19 -4 38 -10 41 -6 4 -5 11 2 19 9 9 16 10
24 2 7 -6 8 -12 3 -14z m7661 -27 c0 -30 -4 -55 -10 -55 -5 0 -10 25 -10 55 0
30 5 55 10 55 6 0 10 -25 10 -55z m90 -1 l0 -55 -32 3 c-30 3 -33 6 -33 38 0
29 4 36 23 38 12 2 22 10 22 18 0 8 5 14 10 14 6 0 10 -25 10 -56z m-4854 38
c39 -27 14 -92 -36 -92 -29 0 -30 1 -30 50 0 48 1 50 28 50 15 0 32 -4 38 -8z
m439 -17 c16 0 20 -7 22 -40 1 -35 1 -36 -5 -10 -4 17 -14 30 -22 30 -8 0 -18
-13 -21 -30 -5 -23 -7 -16 -7 25 0 30 2 48 6 40 4 -8 16 -15 27 -15z m228 18
c3 -5 -8 -8 -23 -8 -15 0 -26 3 -23 8 2 4 13 7 23 7 10 0 21 -3 23 -7z m2935
-5 c7 -7 12 -24 12 -38 0 -34 -17 -50 -52 -50 -27 0 -28 2 -28 50 0 48 1 50
28 50 15 0 33 -5 40 -12z m835 -35 c18 -47 16 -66 -5 -45 -16 16 -45 15 -51 0
-2 -7 -8 -10 -12 -6 -10 9 25 98 39 98 7 0 19 -21 29 -47z m-12319 21 c9 -9
16 -32 16 -54 l0 -39 -47 2 c-41 2 -48 5 -51 24 -3 17 3 24 27 30 35 9 38 30
4 25 -24 -3 -32 13 -10 21 24 10 46 7 61 -9z m347 6 c32 -18 24 -48 -13 -52
-18 -2 -32 -7 -30 -13 2 -5 16 -9 33 -7 31 2 40 -12 13 -22 -50 -19 -93 19
-75 67 14 35 38 44 72 27z m127 -3 c18 -14 16 -97 -3 -97 -11 0 -15 11 -15 40
0 33 -3 40 -20 40 -17 0 -20 -7 -20 -40 0 -29 -4 -40 -15 -40 -11 0 -15 13
-15 54 l0 54 38 -1 c20 0 43 -5 50 -10z m2852 -62 c10 0 17 14 21 40 l6 40 2
-46 c1 -44 0 -46 -26 -45 -26 1 -28 4 -29 46 l-2 45 7 -40 c4 -26 11 -40 21
-40z m116 25 l2 -45 -7 40 c-4 26 -11 40 -21 40 -10 0 -17 -14 -21 -40 l-6
-40 -2 46 c-1 44 0 46 27 45 25 -1 27 -4 28 -46z m181 -17 c-2 -16 -4 -5 -4
22 0 28 2 40 4 28 2 -13 2 -35 0 -50z m81 55 c30 -30 -2 -93 -36 -71 -21 13
-27 50 -12 69 15 17 32 18 48 2z m98 -38 l2 -45 -7 40 c-8 53 -35 55 -39 3 -4
-52 -22 -48 -22 5 0 42 1 43 33 42 31 0 32 -1 33 -45z m82 38 c21 -21 13 -38
-18 -38 -23 0 -28 -4 -23 -16 4 -11 13 -14 30 -9 16 4 22 2 18 -5 -8 -14 -38
-13 -53 2 -24 24 -8 78 23 78 6 0 16 -5 23 -12z m90 -1 c6 -5 11 -25 11 -45
-2 -34 -2 -35 -6 -7 -10 64 -48 66 -56 2 -3 -25 -4 -22 -5 13 -2 42 0 46 21
45 12 0 28 -4 35 -8z m482 -62 c10 0 17 14 21 40 l6 40 2 -46 c1 -44 0 -46
-26 -45 -26 1 -28 4 -29 46 l-2 45 7 -40 c4 -26 11 -40 21 -40z m120 56 c13
-25 13 -71 1 -71 -6 0 -11 17 -13 38 -4 52 -31 50 -39 -3 l-6 -40 -2 45 c-1
42 1 46 24 48 15 1 28 -5 35 -17z m178 7 c21 -21 13 -38 -18 -38 -23 0 -28 -4
-23 -16 4 -11 13 -14 30 -9 16 4 22 2 18 -5 -8 -14 -38 -13 -53 2 -24 24 -8
78 23 78 6 0 16 -5 23 -12z m90 -1 c6 -5 11 -25 11 -45 -2 -34 -2 -35 -6 -7
-10 64 -48 66 -56 2 -3 -25 -4 -22 -5 13 -2 42 0 46 21 45 12 0 28 -4 35 -8z
m88 2 c4 -7 0 -9 -14 -5 -31 10 -37 -13 -7 -24 17 -7 25 -16 23 -27 -4 -22
-36 -29 -52 -13 -8 9 -6 11 11 6 31 -10 39 12 9 24 -25 9 -34 29 -19 43 10 11
41 8 49 -4z m91 -56 c-2 -16 -4 -5 -4 22 0 28 2 40 4 28 2 -13 2 -35 0 -50z
m131 54 c14 -10 16 -77 2 -77 -5 0 -10 18 -10 41 0 52 -24 48 -28 -4 -4 -48
-20 -48 -24 1 -2 20 -7 37 -13 37 -5 0 -11 -17 -13 -37 -4 -52 -22 -48 -22 5
l0 42 48 0 c26 0 53 -4 60 -8z m138 -37 l2 -45 -7 40 c-4 26 -11 40 -21 40
-10 0 -16 -13 -19 -40 l-5 -40 -5 40 c-4 26 -11 40 -21 40 -10 0 -17 -14 -21
-40 l-6 -40 -2 46 -1 46 53 -1 52 -1 1 -45z m78 44 c9 -3 16 -15 16 -25 0 -14
-7 -19 -26 -19 -16 0 -24 -5 -21 -12 2 -7 14 -12 26 -11 13 2 20 -1 16 -7 -11
-19 -45 -10 -56 14 -8 17 -8 29 0 45 12 22 20 25 45 15z m102 -44 l2 -45 -7
40 c-8 53 -35 55 -39 3 -4 -52 -22 -48 -22 5 0 42 1 43 33 42 31 0 32 -1 33
-45z m471 32 c-8 -9 -17 -30 -20 -47 -3 -22 -4 -19 -6 15 -1 40 2 46 20 47 19
2 20 0 6 -15z m93 -1 c15 -29 13 -31 -21 -31 -20 0 -29 -4 -26 -12 2 -7 13
-13 25 -12 12 0 19 -3 16 -8 -11 -17 -45 -7 -53 15 -19 50 34 94 59 48z m37
-48 c-2 -16 -4 -5 -4 22 0 28 2 40 4 28 2 -13 2 -35 0 -50z m79 56 c4 -7 0 -9
-14 -5 -31 10 -37 -13 -7 -24 17 -7 25 -16 23 -27 -4 -22 -36 -29 -52 -13 -8
9 -6 11 11 6 31 -10 39 12 9 24 -25 9 -34 29 -19 43 10 11 41 8 49 -4z m82 -1
c21 -21 13 -38 -18 -38 -23 0 -28 -4 -23 -16 4 -11 13 -14 30 -9 16 4 22 2 18
-5 -8 -14 -38 -13 -53 2 -24 24 -8 78 23 78 6 0 16 -5 23 -12z m510 0 c22 -22
13 -38 -19 -38 -20 0 -29 -4 -26 -12 2 -7 16 -12 31 -11 14 1 24 -2 21 -8 -9
-13 -39 -11 -53 3 -24 24 -8 78 23 78 6 0 16 -5 23 -12z m90 -8 c5 -13 3 -13
-12 -1 -21 18 -39 3 -34 -30 2 -17 9 -24 25 -23 12 0 20 -3 17 -8 -3 -4 -14
-8 -25 -8 -34 0 -45 62 -15 82 16 12 39 5 44 -12z m178 -30 l2 -45 -7 40 c-4
26 -11 40 -21 40 -10 0 -17 -14 -21 -40 l-6 -40 -2 46 c-1 44 0 46 27 45 25
-1 27 -4 28 -46z m78 44 c9 -3 16 -15 16 -25 0 -14 -7 -19 -26 -19 -16 0 -24
-5 -21 -12 2 -7 14 -12 26 -11 13 2 20 -1 16 -7 -11 -19 -45 -10 -56 14 -8 17
-8 29 0 45 12 22 20 25 45 15z m73 -5 c-11 -7 -17 -22 -17 -44 0 -19 -4 -35
-10 -35 -5 0 -10 19 -10 43 0 39 2 42 27 44 22 1 24 -1 10 -8z m947 -37 c1
-24 -3 -41 -9 -39 -11 4 -25 74 -17 82 14 14 25 -5 26 -43z m-135 19 c12 -21
5 -31 -21 -31 -10 0 -18 -5 -18 -11 0 -6 9 -9 20 -6 11 3 20 1 20 -4 0 -5 -11
-9 -25 -9 -18 0 -26 7 -31 25 -11 45 35 75 55 36z m43 -13 c4 -43 22 -43 26 0
4 42 22 32 22 -13 0 -31 -2 -33 -32 -32 -30 2 -33 5 -36 40 -2 20 1 37 7 37 5
0 11 -15 13 -32z m164 21 c4 -8 0 -9 -15 -4 -12 3 -21 2 -21 -4 0 -5 9 -13 21
-16 25 -8 22 -38 -5 -43 -10 -2 -23 2 -30 8 -8 9 -6 11 11 6 12 -4 24 -2 28 4
3 5 0 10 -8 10 -23 0 -39 24 -25 38 15 15 35 15 44 1z m82 -9 c4 -12 3 -13
-10 -2 -12 10 -18 9 -28 -3 -19 -23 -5 -48 22 -40 18 6 20 4 12 -5 -29 -30
-67 13 -50 56 7 19 48 14 54 -6z m3310 -7 c3 -19 -1 -23 -23 -23 -16 0 -24 -4
-20 -10 4 -6 16 -8 28 -4 17 5 19 3 11 -6 -29 -30 -67 13 -50 56 9 24 50 13
54 -13z m121 -17 c-2 -40 -2 -40 -8 -8 -3 18 -10 33 -16 33 -5 0 -13 -15 -16
-33 -4 -21 -7 -25 -8 -11 -3 56 -31 67 -31 12 0 -16 -4 -29 -10 -29 -5 0 -10
17 -10 38 l0 38 50 1 50 1 -1 -42z m85 22 c14 -23 -3 -52 -32 -56 -16 -2 -23
3 -28 22 -12 48 35 74 60 34z m630 6 c9 -23 7 -64 -3 -64 -5 0 -11 14 -14 30
-4 17 -11 30 -17 30 -5 0 -10 -13 -10 -30 0 -16 -4 -30 -10 -30 -5 0 -10 18
-10 40 0 37 2 40 29 40 17 0 31 -6 35 -16z m124 -26 c2 -22 -1 -38 -7 -38 -6
0 -11 14 -11 30 0 17 -4 30 -10 30 -5 0 -10 -13 -10 -30 0 -20 -5 -30 -15 -30
-10 0 -15 10 -15 30 0 17 -4 30 -10 30 -5 0 -10 -13 -10 -30 0 -16 -4 -30 -10
-30 -5 0 -10 18 -10 41 l0 40 53 -3 52 -3 3 -37z m80 15 c3 -19 -2 -23 -25
-24 l-28 -1 30 -8 c24 -5 27 -8 13 -14 -41 -18 -71 16 -54 60 9 25 60 14 64
-13z m200 0 c3 -18 -2 -23 -20 -24 l-23 -2 23 -4 c32 -6 27 -23 -8 -23 -23 0
-31 5 -36 25 -4 15 -1 32 7 41 18 22 53 14 57 -13z m86 5 c10 -38 7 -58 -9
-58 -10 0 -15 10 -15 30 0 17 -4 30 -10 30 -5 0 -10 -13 -10 -30 0 -20 -5 -30
-15 -30 -11 0 -15 11 -15 40 0 39 1 40 34 40 26 0 35 -5 40 -22z m-4351 -40
c-2 -5 -13 -8 -23 -8 -10 0 -21 3 -23 8 -3 4 8 7 23 7 15 0 26 -3 23 -7z
m-1833 -1003 c7 -8 10 -25 6 -40 -5 -19 -13 -25 -35 -25 -39 0 -57 23 -43 55
13 29 52 34 72 10z m-1470 -24 c0 -24 -5 -30 -30 -34 -24 -5 -30 -12 -30 -32
0 -21 5 -25 30 -25 27 0 30 -3 30 -30 0 -27 -3 -30 -30 -30 l-30 0 0 -125 0
-125 -40 0 -40 0 0 125 0 125 -25 0 c-21 0 -25 5 -25 29 0 23 5 30 23 33 17 2
23 11 25 38 6 56 34 78 105 79 34 1 37 -1 37 -28z m2111 19 c43 -12 76 -45 89
-88 l9 -32 -44 0 c-33 0 -44 4 -48 19 -2 10 -20 24 -41 31 -45 15 -92 -1 -102
-33 -9 -29 24 -53 94 -67 104 -22 142 -55 142 -123 0 -84 -58 -129 -165 -129
-96 0 -165 44 -165 107 0 24 72 20 87 -5 26 -41 123 -44 149 -4 26 38 5 59
-78 79 -107 26 -131 43 -151 107 -16 48 39 127 98 141 35 8 89 7 126 -3z
m-3980 -14 c41 -17 84 -61 99 -101 6 -16 11 -58 11 -92 0 -85 -27 -143 -82
-180 -40 -26 -51 -28 -161 -32 l-118 -3 0 211 0 211 109 0 c71 0 120 -5 142
-14z m731 -82 l3 -96 75 95 75 96 48 1 c26 0 47 -2 47 -4 0 -3 -32 -44 -71
-92 l-71 -87 80 -118 81 -119 -53 0 -53 0 -57 85 c-31 47 -60 85 -65 85 -22 0
-41 -52 -41 -110 l0 -60 -40 0 -40 0 0 210 0 210 40 0 39 0 3 -96z m2037 39
c49 -224 54 -238 63 -213 5 13 23 80 40 148 l31 123 40 -3 41 -3 37 -145 c20
-80 39 -138 43 -130 3 8 18 74 34 145 l27 130 47 3 47 3 -40 -148 c-22 -81
-47 -176 -55 -210 l-16 -63 -44 0 c-42 0 -43 1 -55 43 -6 23 -23 87 -39 142
l-28 100 -15 -55 c-9 -30 -27 -93 -39 -140 l-24 -85 -44 0 -44 0 -47 176 c-26
97 -50 190 -54 208 l-7 31 45 0 44 0 12 -57z m2351 -153 l0 -210 -45 0 c-41 0
-45 2 -45 25 l0 24 -25 -24 c-28 -29 -89 -34 -134 -10 -54 27 -79 152 -47 230
31 72 127 96 182 44 l24 -22 0 76 0 77 45 0 45 0 0 -210z m-2780 140 c0 -38 2
-40 30 -40 27 0 30 -3 30 -30 0 -27 -3 -30 -30 -30 l-30 0 0 -79 c0 -96 5
-111 36 -111 20 0 24 -5 24 -29 0 -20 -6 -32 -17 -35 -27 -8 -96 11 -110 30
-12 17 -20 117 -14 192 2 28 -1 32 -24 32 -21 0 -25 5 -25 29 0 23 5 30 23 33
18 2 23 10 25 41 3 36 4 37 43 37 39 0 39 0 39 -40z m-1105 -44 c53 -23 65
-57 65 -191 l0 -115 -45 0 c-39 0 -45 3 -45 21 l0 20 -26 -20 c-29 -23 -92
-28 -126 -10 -31 17 -50 71 -37 108 14 40 52 60 129 68 58 6 61 7 58 32 -3 23
-8 26 -46 29 -31 2 -44 -1 -48 -12 -4 -11 -19 -16 -45 -16 -43 0 -49 12 -23
49 34 47 122 65 189 37z m878 1 c36 -16 51 -32 61 -64 7 -21 4 -23 -31 -23
-26 0 -44 6 -56 20 -20 24 -59 26 -77 5 -17 -21 -6 -43 27 -51 124 -28 148
-44 146 -99 -1 -48 -33 -81 -89 -93 -41 -9 -97 -4 -137 13 -17 7 -47 54 -47
75 0 20 71 11 89 -12 32 -39 121 -22 95 19 -5 9 -38 24 -72 33 -34 10 -71 25
-82 35 -22 20 -27 74 -9 106 23 44 118 62 182 36z m1477 -26 c0 -34 -3 -38
-20 -34 -11 3 -31 -2 -45 -11 -24 -16 -25 -20 -25 -126 l0 -110 -45 0 -45 0 0
155 0 155 45 0 c36 0 45 -3 45 -17 0 -15 3 -14 22 5 12 12 33 22 45 22 20 0
23 -5 23 -39z m761 16 c40 -26 69 -79 69 -124 l0 -33 -105 0 c-101 0 -105 -1
-105 -22 0 -53 81 -80 117 -38 23 27 83 28 83 2 0 -28 -55 -74 -97 -82 -53 -9
-113 7 -145 37 -53 51 -59 174 -10 232 45 54 135 67 193 28z m354 8 c47 -23
55 -51 55 -185 l0 -120 -39 0 -39 0 -4 111 c-3 96 -6 113 -22 125 -26 19 -55
18 -78 -3 -14 -13 -18 -31 -18 -93 0 -43 -3 -92 -6 -109 -6 -28 -10 -31 -45
-31 l-39 0 0 155 0 155 45 0 c40 0 45 -3 45 -22 0 -19 2 -20 13 -6 31 39 79
47 132 23z m681 -1 c41 -19 69 -64 78 -121 l6 -43 -110 0 c-71 0 -110 -4 -110
-11 0 -15 21 -53 34 -61 22 -15 73 -8 91 12 21 23 85 28 85 7 0 -45 -70 -89
-142 -89 -99 1 -152 62 -146 169 4 72 26 108 79 135 42 22 91 23 135 2z m363
2 c42 -22 51 -55 51 -186 l0 -120 -40 0 -40 0 0 103 c0 77 -4 108 -16 125 -19
28 -57 29 -84 2 -17 -17 -20 -33 -20 -125 l0 -105 -45 0 -45 0 0 155 0 155 45
0 c39 0 45 -3 45 -21 0 -20 1 -20 31 5 34 29 76 33 118 12z m-5499 -98 c0
-108 3 -118 34 -135 22 -12 65 -1 78 20 4 7 8 58 8 115 l0 102 45 0 45 0 0
-155 0 -155 -45 0 c-39 0 -45 3 -45 20 0 20 0 20 -29 -1 -20 -14 -44 -22 -72
-22 -35 0 -48 6 -71 32 -28 31 -28 33 -28 156 l0 125 40 0 40 0 0 -102z m1190
-1 c0 -116 9 -139 55 -139 51 0 65 30 65 143 l0 99 46 0 47 0 -7 -92 c-3 -50
-6 -120 -6 -155 l0 -63 -40 0 c-37 0 -40 2 -40 27 l0 27 -15 -21 c-21 -29 -75
-44 -119 -32 -57 16 -69 47 -74 187 l-4 122 46 0 46 0 0 -103z m1910 -52 l0
-155 -39 0 -38 0 -7 77 c-3 42 -6 111 -6 155 l0 78 45 0 45 0 0 -155z m-825
-81 c34 -35 1 -83 -48 -70 -21 5 -27 12 -27 34 0 49 42 69 75 36z m3413 4 c28
-28 7 -78 -33 -78 -42 0 -59 44 -29 74 18 19 45 21 62 4z m-5613 -468 c3 -5 1
-10 -4 -10 -6 0 -11 5 -11 10 0 6 2 10 4 10 3 0 8 -4 11 -10z m380 0 c3 -5 1
-10 -4 -10 -6 0 -11 5 -11 10 0 6 2 10 4 10 3 0 8 -4 11 -10z m475 0 c0 -5 -5
-10 -11 -10 -5 0 -7 5 -4 10 3 6 8 10 11 10 2 0 4 -4 4 -10z m2253 -7 c-7 -3
-13 -11 -13 -19 0 -8 6 -14 13 -15 10 0 10 -2 0 -6 -8 -3 -13 -23 -13 -49 0
-24 -4 -44 -10 -44 -9 0 -16 70 -10 110 2 18 31 43 39 34 3 -4 0 -9 -6 -11z
m-3247 -50 l26 -58 15 35 c9 19 19 45 24 58 17 44 29 22 27 -50 l-1 -73 -6 55
-6 55 -24 -52 c-13 -29 -27 -53 -31 -53 -4 0 -17 24 -28 53 l-21 52 0 -52 c-1
-29 -5 -53 -11 -53 -6 0 -10 30 -10 70 0 41 4 70 10 70 6 0 22 -26 36 -57z
m364 -10 l0 -68 -35 -2 c-37 -3 -55 16 -55 56 0 28 38 53 62 40 15 -8 18 -6
18 16 0 14 2 25 5 25 3 0 5 -30 5 -67z m1030 -3 c0 -40 -4 -70 -10 -70 -6 0
-10 30 -10 70 0 40 4 70 10 70 6 0 10 -30 10 -70z m40 0 c0 -40 -4 -70 -10
-70 -6 0 -10 30 -10 70 0 40 4 70 10 70 6 0 10 -30 10 -70z m330 -50 c14 -8
26 -7 40 0 16 9 20 21 20 65 0 30 5 55 10 55 14 0 12 -80 -3 -110 -8 -16 -23
-26 -40 -28 -45 -5 -57 13 -55 82 l2 61 3 -57 c3 -45 8 -60 23 -68z m238 102
c3 -11 0 -12 -18 -2 -12 6 -28 9 -37 6 -25 -10 -10 -38 27 -50 37 -12 50 -37
30 -61 -15 -18 -61 -20 -78 -3 -20 20 -13 32 7 14 13 -11 27 -15 40 -11 32 10
25 33 -14 49 -40 17 -53 39 -34 62 15 18 70 15 77 -4z m192 14 c0 -2 11 -33
25 -70 14 -36 21 -66 16 -66 -5 0 -13 9 -16 20 -5 14 -15 20 -37 20 -21 0 -31
-6 -35 -20 -3 -11 -10 -20 -15 -20 -6 0 -7 8 -3 18 4 9 16 41 27 70 11 28 24
52 29 52 5 0 9 -2 9 -4z m150 -64 l0 -69 -34 -1 c-42 -2 -58 16 -54 60 3 30 6
33 36 33 27 0 32 4 32 22 0 13 5 23 10 23 6 0 10 -29 10 -68z m1230 0 l0 -69
-35 -1 c-46 -2 -71 31 -55 73 9 23 15 27 40 23 26 -4 30 -1 30 19 0 13 5 23
10 23 6 0 10 -29 10 -68z m270 0 l0 -69 -34 -1 c-42 -2 -58 16 -54 60 3 30 6
33 36 33 27 0 32 4 32 22 0 13 5 23 10 23 6 0 10 -29 10 -68z m500 -2 c0 -40
-4 -70 -10 -70 -6 0 -10 30 -10 70 0 40 4 70 10 70 6 0 10 -30 10 -70z m37
-37 c-2 -21 -4 -4 -4 37 0 41 2 58 4 38 2 -21 2 -55 0 -75z m-4188 59 c-17 -6
-10 -70 9 -82 15 -10 15 -10 -3 -8 -16 3 -21 12 -23 46 -2 23 -7 42 -13 42 -5
0 -4 9 3 19 11 18 13 18 24 3 7 -9 8 -18 3 -20z m921 23 c0 -8 6 -15 13 -16
10 0 10 -2 0 -6 -16 -6 -17 -65 -1 -81 9 -9 8 -12 -4 -12 -22 0 -33 44 -29
113 1 21 21 23 21 2z m2280 0 c0 -8 6 -15 13 -16 10 0 10 -2 0 -6 -7 -2 -13
-19 -13 -37 0 -18 6 -38 13 -45 10 -10 8 -12 -8 -9 -15 2 -21 12 -23 43 -2 22
-9 43 -15 47 -9 6 -9 8 1 8 6 0 12 7 12 15 0 8 5 15 10 15 6 0 10 -7 10 -15z
m1480 0 c0 -8 6 -15 13 -16 10 0 10 -2 0 -6 -7 -2 -13 -19 -13 -37 0 -18 6
-38 13 -45 10 -10 8 -12 -8 -9 -16 2 -21 13 -25 48 -3 25 -4 53 -2 63 5 21 22
23 22 2z m490 0 c0 -8 6 -15 13 -16 10 0 10 -2 0 -6 -7 -2 -13 -19 -13 -37 0
-18 6 -38 13 -45 10 -10 8 -12 -8 -9 -16 2 -21 13 -25 48 -3 25 -4 53 -2 63 5
21 22 23 22 2z m-4550 -15 c0 -5 -7 -10 -15 -10 -14 0 -19 -14 -28 -70 -3 -14
-5 -1 -6 28 0 29 3 51 7 48 4 -2 14 -1 22 5 19 11 20 11 20 -1z m260 0 c0 -5
-7 -10 -15 -10 -14 0 -19 -14 -28 -70 -3 -14 -5 -1 -6 28 0 29 3 51 7 48 4 -2
14 -1 22 5 19 11 20 11 20 -1z m580 -55 c0 -25 -4 -45 -10 -45 -5 0 -10 21
-10 46 0 41 -2 45 -22 42 -19 -2 -24 -11 -29 -48 l-6 -45 -1 53 c-1 29 2 51 6
48 4 -2 14 -1 22 4 28 17 50 -8 50 -55z m770 55 c0 -5 -7 -10 -15 -10 -14 0
-19 -14 -28 -70 -3 -14 -5 -1 -6 28 0 29 3 51 7 48 4 -2 14 -1 22 5 19 11 20
11 20 -1z m190 -16 c0 -2 -11 -2 -24 2 -37 9 -42 -15 -6 -27 24 -9 30 -17 28
-33 -2 -16 -10 -21 -32 -21 -17 0 -31 6 -34 15 -5 13 -3 13 11 1 19 -15 52 -7
42 10 -4 5 -18 14 -31 19 -28 11 -31 35 -7 49 16 9 53 -1 53 -15z m454 -7 c3
-12 6 -34 6 -48 0 -22 -4 -26 -34 -27 -41 -2 -65 20 -46 43 7 8 24 15 37 15
15 0 23 5 20 13 -2 6 -17 11 -33 10 -26 -2 -27 -1 -11 11 24 18 54 9 61 -17z
m276 7 c0 -2 -11 -2 -24 2 -37 9 -42 -15 -6 -27 24 -9 30 -17 28 -33 -2 -16
-10 -21 -32 -21 -17 0 -31 6 -34 15 -5 13 -3 13 11 1 19 -15 52 -7 42 10 -4 5
-18 14 -31 19 -28 11 -31 35 -7 49 16 9 53 -1 53 -15z m600 -37 c0 -41 -1 -42
-35 -45 -24 -1 -37 3 -41 13 -9 22 14 45 43 45 15 0 23 5 20 13 -2 6 -16 11
-31 10 -29 -2 -36 13 -8 20 34 7 52 -11 52 -56z m100 37 c0 -2 -11 -2 -24 2
-37 9 -42 -15 -6 -27 24 -9 30 -17 28 -33 -2 -16 -10 -21 -32 -21 -17 0 -31 6
-34 15 -5 13 -3 13 11 1 19 -15 52 -7 42 10 -4 5 -18 14 -31 19 -28 11 -31 35
-7 49 16 9 53 -1 53 -15z m1270 -39 c0 -25 -4 -45 -10 -45 -5 0 -10 21 -10 46
0 41 -2 45 -22 42 -19 -2 -24 -11 -29 -48 l-6 -45 -1 53 c-1 29 2 51 6 48 4
-2 14 -1 22 4 28 17 50 -8 50 -55z m-5183 -22 c-2 -16 -4 -3 -4 27 0 30 2 43
4 28 2 -16 2 -40 0 -55z m344 50 c8 -21 6 -23 -31 -23 -42 0 -50 -9 -26 -29
11 -10 20 -10 37 -1 17 10 20 9 17 -2 -6 -18 -46 -23 -64 -8 -14 13 -20 71 -7
84 16 15 66 1 74 -21z m36 -50 c-2 -16 -4 -3 -4 27 0 30 2 43 4 28 2 -16 2
-40 0 -55z m111 25 l-1 -53 -6 45 c-5 36 -10 45 -26 45 -16 0 -21 -8 -23 -42
-4 -60 -22 -54 -22 7 l0 50 40 0 40 0 -2 -52z m113 25 c8 -21 6 -23 -31 -23
-42 0 -50 -9 -26 -29 11 -10 20 -10 37 -1 17 10 20 9 17 -2 -6 -18 -46 -23
-64 -8 -14 13 -20 71 -7 84 16 15 66 1 74 -21z m164 -13 c6 -27 25 -43 25 -21
0 19 21 64 26 58 8 -7 -26 -97 -36 -97 -7 0 -40 77 -40 93 0 19 19 -6 25 -33z
m92 -37 c-2 -16 -4 -3 -4 27 0 30 2 43 4 28 2 -16 2 -40 0 -55z m183 38 c0
-39 12 -53 38 -43 7 2 12 21 12 43 0 21 5 39 10 39 6 0 10 -22 10 -48 0 -48 0
-49 -32 -50 -18 0 -38 4 -45 10 -15 12 -18 88 -3 88 6 0 10 -18 10 -39z m170
20 c15 -29 13 -31 -25 -31 -23 0 -35 -5 -35 -14 0 -20 30 -29 48 -14 13 11 14
10 10 -2 -6 -19 -45 -25 -64 -10 -17 15 -19 61 -2 78 18 18 56 14 68 -7z m198
-8 c3 -20 -1 -23 -32 -23 -38 0 -45 -10 -22 -29 11 -9 20 -10 35 -1 12 6 21 7
21 1 0 -10 -24 -21 -46 -21 -25 0 -46 44 -34 74 8 23 15 27 42 24 25 -2 34 -8
36 -25z m972 8 c15 -29 13 -31 -25 -31 -23 0 -35 -5 -35 -14 0 -20 30 -29 48
-14 13 11 14 10 10 -2 -6 -19 -45 -25 -64 -10 -17 15 -19 61 -2 78 18 18 56
14 68 -7z m195 9 c4 -6 -6 -7 -25 -4 -40 8 -40 -13 0 -27 38 -14 41 -46 4 -55
-17 -4 -31 -1 -42 10 -10 9 -12 16 -5 16 7 0 15 -4 18 -10 9 -15 35 -12 35 4
0 8 -10 18 -22 22 -27 8 -38 22 -31 41 6 15 59 18 68 3z m105 -9 c15 -29 13
-31 -25 -31 -23 0 -35 -5 -35 -14 0 -20 30 -29 48 -14 13 11 14 10 10 -2 -6
-19 -45 -25 -64 -10 -17 15 -19 61 -2 78 18 18 56 14 68 -7z m150 12 c0 -3
-11 -21 -25 -39 -31 -41 -31 -42 3 -47 22 -3 20 -4 -10 -6 -21 0 -38 3 -38 7
0 4 11 24 25 43 l26 34 -28 6 c-26 6 -25 7 10 8 20 0 37 -2 37 -6z m214 -9
c18 -47 -6 -91 -44 -81 -15 4 -20 0 -20 -14 0 -10 -4 -19 -10 -19 -6 0 -10 28
-10 65 l0 65 39 0 c26 0 41 -5 45 -16z m436 -23 c0 -39 12 -53 38 -43 7 2 12
21 12 43 0 21 5 39 10 39 6 0 10 -22 10 -48 0 -48 0 -49 -32 -50 -18 0 -38 4
-45 10 -15 12 -18 88 -3 88 6 0 10 -18 10 -39z m530 -3 l13 -43 14 43 c8 23
18 42 23 42 10 0 -25 -93 -37 -97 -5 -2 -15 14 -22 34 -8 21 -16 44 -18 51 -3
6 -1 12 4 12 6 0 16 -19 23 -42z m148 30 c7 -7 12 -24 12 -38 0 -31 -17 -50
-45 -50 -28 0 -45 19 -45 50 0 31 17 50 45 50 12 0 26 -5 33 -12z m203 -15 c8
-21 6 -23 -31 -23 -42 0 -50 -9 -26 -29 11 -10 20 -10 37 -1 17 10 20 9 17 -2
-6 -18 -46 -23 -64 -8 -14 13 -20 71 -7 84 16 15 66 1 74 -21z m144 17 c4 -6
-6 -7 -25 -4 -40 8 -40 -13 0 -27 38 -14 41 -46 4 -55 -17 -4 -31 -1 -42 10
-10 9 -12 16 -5 16 7 0 15 -4 18 -10 9 -15 35 -12 35 4 0 8 -10 18 -22 22 -27
8 -38 22 -31 41 6 15 59 18 68 3z m103 -2 c7 -7 12 -24 12 -38 0 -31 -17 -50
-45 -50 -28 0 -45 19 -45 50 0 31 17 50 45 50 12 0 26 -5 33 -12z m69 0 c-11
-6 -17 -22 -17 -48 0 -22 -4 -40 -10 -40 -5 0 -10 22 -10 49 0 46 1 49 27 49
21 0 23 -2 10 -10z m123 -38 c0 -27 -4 -50 -10 -50 -5 0 -10 23 -10 50 0 28 5
50 10 50 6 0 10 -22 10 -50z m158 -3 l-1 -52 -6 45 c-5 36 -10 45 -26 45 -16
0 -21 -9 -26 -45 -6 -41 -6 -42 -8 -10 -2 44 -14 65 -35 57 -11 -4 -16 -19
-16 -47 0 -22 -4 -40 -10 -40 -5 0 -10 22 -10 48 l0 49 70 0 70 1 -2 -51z
m110 26 c3 -20 -1 -23 -32 -23 -38 0 -45 -10 -22 -29 11 -9 20 -10 35 -1 12 6
21 7 21 1 0 -10 -24 -21 -46 -21 -25 0 -46 44 -34 74 8 23 15 27 42 24 25 -2
34 -8 36 -25z m-3318 -63 c0 -5 -4 -10 -10 -10 -5 0 -10 5 -10 10 0 6 5 10 10
10 6 0 10 -4 10 -10z m170 0 c0 -5 -4 -10 -10 -10 -5 0 -10 5 -10 10 0 6 5 10
10 10 6 0 10 -4 10 -10z m-1065 -150 c3 -5 1 -10 -4 -10 -6 0 -11 5 -11 10 0
6 2 10 4 10 3 0 8 -4 11 -10z m1575 0 c0 -5 -5 -10 -11 -10 -5 0 -7 5 -4 10 3
6 8 10 11 10 2 0 4 -4 4 -10z m205 0 c3 -5 1 -10 -4 -10 -6 0 -11 5 -11 10 0
6 2 10 4 10 3 0 8 -4 11 -10z m168 -7 c-7 -3 -13 -11 -13 -19 0 -8 6 -14 13
-15 10 0 10 -2 0 -6 -8 -3 -13 -23 -13 -49 0 -24 -4 -44 -9 -44 -12 0 -18 98
-7 118 11 21 29 33 36 25 3 -3 -1 -8 -7 -10z m492 7 c3 -5 1 -10 -4 -10 -6 0
-11 5 -11 10 0 6 2 10 4 10 3 0 8 -4 11 -10z m-2731 -61 c11 11 24 21 29 21 6
0 2 -9 -8 -20 -18 -20 -18 -21 4 -50 27 -37 10 -40 -18 -4 -15 19 -22 22 -25
13 -2 -8 -7 -21 -9 -29 -3 -8 -5 19 -5 60 1 60 2 67 7 31 l6 -43 19 21z m536
37 c0 -20 4 -22 26 -18 32 6 44 -10 44 -60 0 -52 -18 -48 -22 5 -2 34 -7 42
-23 42 -16 0 -21 -8 -23 -42 -5 -70 -22 -49 -22 27 0 40 4 70 10 70 6 0 10
-11 10 -24z m1490 -46 c0 -40 -4 -70 -10 -70 -6 0 -10 30 -10 70 0 40 4 70 10
70 6 0 10 -30 10 -70z m590 47 c0 -18 5 -22 33 -22 29 0 32 -3 35 -33 4 -44
-12 -62 -54 -60 l-34 1 0 69 c0 39 4 68 10 68 6 0 10 -10 10 -23z m700 -45 l0
-69 -34 -1 c-42 -2 -58 16 -54 60 3 30 6 33 36 33 27 0 32 4 32 22 0 13 5 23
10 23 6 0 10 -29 10 -68z m460 38 c0 -28 2 -30 39 -30 37 0 40 2 44 33 2 17 4
-2 4 -43 0 -41 -2 -60 -4 -42 -4 30 -7 32 -44 32 -37 0 -39 -2 -39 -30 0 -16
-4 -30 -10 -30 -6 0 -10 30 -10 70 0 40 4 70 10 70 6 0 10 -13 10 -30z m-2800
5 c0 -8 6 -15 13 -16 10 0 10 -2 0 -6 -7 -2 -13 -19 -13 -37 0 -18 6 -38 13
-45 10 -10 8 -12 -8 -9 -15 2 -21 12 -23 43 -2 22 -9 43 -15 47 -9 6 -9 8 1 8
6 0 12 7 12 15 0 8 5 15 10 15 6 0 10 -7 10 -15z m3259 -23 c-17 -6 -10 -70 9
-82 15 -10 15 -10 -3 -8 -16 3 -21 12 -23 46 -2 23 -7 42 -13 42 -5 0 -4 9 3
19 11 18 13 18 24 3 7 -9 8 -18 3 -20z m-4685 -15 c3 -12 6 -34 6 -48 0 -22
-4 -26 -34 -27 -41 -2 -65 20 -46 43 7 8 24 15 37 15 15 0 23 5 20 13 -2 6
-17 11 -33 10 -26 -2 -27 -1 -11 11 24 18 54 9 61 -17z m586 -30 c0 -41 -1
-42 -35 -45 -24 -1 -37 3 -41 13 -9 22 14 45 43 45 15 0 23 5 20 13 -2 6 -16
11 -31 10 -29 -2 -36 13 -8 20 34 7 52 -11 52 -56z m250 42 c0 -5 -11 -7 -24
-3 -39 9 -40 -14 -1 -30 38 -16 43 -27 21 -46 -19 -15 -58 -9 -64 10 -5 13 -3
13 11 1 17 -14 47 -9 47 8 0 5 -13 14 -30 20 -33 11 -39 35 -14 49 19 11 54 4
54 -9z m387 0 c-12 -7 -17 -22 -17 -49 0 -22 -4 -40 -10 -40 -5 0 -10 22 -10
49 0 44 3 50 23 53 29 5 36 -1 14 -13z m153 -5 c0 -2 -11 -2 -24 2 -37 9 -42
-15 -6 -27 24 -9 30 -17 28 -33 -2 -16 -10 -21 -32 -21 -17 0 -31 6 -34 15 -5
13 -3 13 11 1 19 -15 52 -7 42 10 -4 5 -18 14 -31 19 -28 11 -31 35 -7 49 16
9 53 -1 53 -15z m250 16 c0 -5 -7 -10 -15 -10 -14 0 -19 -14 -28 -70 -3 -14
-5 -1 -6 28 0 29 3 51 7 48 4 -2 14 -1 22 5 19 11 20 11 20 -1z m190 -11 c0
-5 -11 -7 -24 -3 -39 9 -40 -14 -1 -30 38 -16 43 -27 21 -46 -19 -15 -58 -9
-64 10 -5 13 -3 13 11 1 17 -14 47 -9 47 8 0 5 -13 14 -30 20 -33 11 -39 35
-14 49 19 11 54 4 54 -9z m150 -42 c0 -41 -1 -42 -35 -45 -24 -1 -37 3 -41 13
-9 22 14 45 43 45 15 0 23 5 20 13 -2 6 -16 11 -31 10 -29 -2 -36 13 -8 20 34
7 52 -11 52 -56z m430 53 c0 -5 -7 -10 -15 -10 -14 0 -19 -14 -28 -70 -3 -14
-5 -1 -6 28 0 29 3 51 7 48 4 -2 14 -1 22 5 19 11 20 11 20 -1z m880 -11 c0
-5 -11 -7 -24 -3 -39 9 -40 -14 -1 -30 38 -16 43 -27 21 -46 -19 -15 -58 -9
-64 10 -5 13 -3 13 11 1 17 -14 47 -9 47 8 0 5 -13 14 -30 20 -33 11 -39 35
-14 49 19 11 54 4 54 -9z m750 -44 c0 -25 -4 -45 -10 -45 -5 0 -10 21 -10 46
0 41 -2 45 -22 42 -19 -2 -24 -11 -29 -48 l-6 -45 -1 53 c-1 29 2 51 6 48 4
-2 14 -1 22 4 28 17 50 -8 50 -55z m-3863 0 l1 -50 -7 42 c-8 49 -14 58 -36
50 -10 -4 -15 -20 -15 -47 0 -22 -4 -40 -10 -40 -5 0 -10 21 -10 46 0 38 -3
45 -17 42 -13 -2 -19 -15 -21 -46 -4 -59 -22 -53 -22 8 l0 50 68 -2 67 -3 2
-50z m111 28 c3 -20 -1 -23 -32 -23 -38 0 -45 -10 -22 -29 11 -9 20 -10 35 -1
12 6 21 7 21 1 0 -10 -24 -21 -46 -21 -25 0 -46 44 -34 74 8 23 15 27 42 24
25 -2 34 -8 36 -25z m67 18 c-14 -6 -22 -21 -26 -52 l-6 -44 -1 50 c-2 49 -1
51 26 52 22 1 24 0 7 -6z m45 -41 c0 -27 -4 -50 -10 -50 -5 0 -10 23 -10 50 0
28 5 50 10 50 6 0 10 -22 10 -50z m306 -5 c1 -27 0 -39 -2 -25 -11 62 -15 70
-34 70 -19 0 -24 -10 -33 -70 -3 -14 -5 -2 -6 26 l-1 51 38 -1 37 -1 1 -50z
m41 -22 c-2 -16 -4 -3 -4 27 0 30 2 43 4 28 2 -16 2 -40 0 -55z m211 59 c3
-11 0 -11 -16 -1 -26 17 -52 5 -52 -24 0 -32 26 -55 42 -39 17 17 33 15 18 -3
-33 -40 -90 8 -70 59 8 23 15 27 42 24 17 -2 33 -9 36 -16z m212 -1 c15 -29
13 -31 -25 -31 -23 0 -35 -5 -35 -14 0 -20 30 -29 48 -14 13 11 14 10 10 -2
-6 -19 -45 -25 -64 -10 -17 15 -19 61 -2 78 18 18 56 14 68 -7z m392 -6 c9
-19 8 -29 -6 -50 -21 -31 -51 -32 -71 -1 -24 36 -5 76 35 76 23 0 33 -6 42
-25z m168 6 c15 -29 13 -31 -25 -31 -23 0 -35 -5 -35 -14 0 -20 30 -29 48 -14
13 11 14 10 10 -2 -6 -19 -45 -25 -64 -10 -17 15 -19 61 -2 78 18 18 56 14 68
-7z m358 -33 l-1 -53 -6 45 c-5 36 -10 45 -26 45 -16 0 -21 -8 -23 -42 -4 -60
-22 -54 -22 7 l0 50 40 0 40 0 -2 -52z m97 15 l8 -38 15 38 c18 45 28 47 37 7
9 -43 22 -45 29 -5 4 19 11 35 17 35 6 0 8 -3 6 -7 -3 -5 -10 -27 -16 -50 -14
-50 -27 -55 -36 -13 -10 44 -23 46 -31 5 -8 -46 -24 -40 -40 16 -16 53 -16 49
-5 49 5 0 12 -17 16 -37z m142 -40 c-2 -16 -4 -3 -4 27 0 30 2 43 4 28 2 -16
2 -40 0 -55z m200 0 c-2 -16 -4 -3 -4 27 0 30 2 43 4 28 2 -16 2 -40 0 -55z
m114 50 c8 -21 6 -23 -31 -23 -42 0 -50 -9 -26 -29 11 -10 20 -10 37 -1 17 10
20 9 17 -2 -6 -18 -46 -23 -64 -8 -14 13 -20 71 -7 84 16 15 66 1 74 -21z
m167 0 c3 -20 -1 -23 -32 -23 -38 0 -45 -10 -22 -29 11 -9 20 -10 35 -1 12 6
21 7 21 1 0 -10 -24 -21 -46 -21 -25 0 -46 44 -34 74 8 23 15 27 42 24 25 -2
34 -8 36 -25z m59 15 c-11 -6 -17 -22 -17 -48 0 -22 -4 -40 -10 -40 -5 0 -10
22 -10 49 0 46 1 49 27 49 21 0 23 -2 10 -10z m115 -1 c11 -17 10 -87 -1 -87
-6 0 -11 19 -13 43 -2 34 -7 42 -23 42 -16 0 -21 -8 -23 -42 -4 -59 -22 -54
-22 5 l0 49 37 1 c20 1 41 -4 45 -11z m205 -64 c-2 -16 -4 -3 -4 27 0 30 2 43
4 28 2 -16 2 -40 0 -55z m203 35 l13 -43 14 43 c8 23 18 42 23 42 10 0 -25
-93 -37 -97 -5 -2 -15 14 -22 34 -8 21 -16 44 -18 51 -3 6 -1 12 4 12 6 0 16
-19 23 -42z m148 30 c7 -7 12 -24 12 -38 0 -31 -17 -50 -45 -50 -28 0 -45 19
-45 50 0 31 17 50 45 50 12 0 26 -5 33 -12z m69 0 c-11 -6 -17 -22 -17 -48 0
-22 -4 -40 -10 -40 -5 0 -10 22 -10 49 0 46 1 49 27 49 21 0 23 -2 10 -10z
m271 0 c23 -23 13 -38 -23 -38 -23 0 -35 -5 -35 -14 0 -18 30 -30 44 -16 16
16 30 12 16 -5 -18 -21 -57 -19 -70 4 -22 42 -5 81 35 81 12 0 26 -5 33 -12z
m52 -38 c0 -27 -4 -50 -10 -50 -5 0 -10 23 -10 50 0 28 5 50 10 50 6 0 10 -22
10 -50z m208 38 c23 -23 13 -38 -23 -38 -23 0 -35 -5 -35 -14 0 -18 30 -30 44
-16 16 16 30 12 16 -5 -18 -21 -57 -19 -70 4 -22 42 -5 81 35 81 12 0 26 -5
33 -12z m296 -4 c3 -9 6 -31 6 -49 0 -32 -1 -33 -37 -32 -33 2 -38 5 -38 27 0
20 6 26 28 28 16 2 27 9 27 19 0 12 -7 14 -30 9 -19 -3 -29 -2 -25 4 10 16 62
12 69 -6z m46 -23 c0 -26 5 -41 16 -45 25 -10 34 2 34 45 0 21 5 39 10 39 6 0
10 -22 10 -48 0 -49 0 -49 -35 -50 -25 -1 -38 4 -45 18 -13 24 -13 80 0 80 6
0 10 -18 10 -39z m165 29 c4 -6 -6 -7 -25 -4 -40 8 -40 -13 0 -27 38 -14 41
-46 4 -55 -17 -4 -31 -1 -42 10 -10 9 -12 16 -5 16 7 0 15 -4 18 -10 9 -15 35
-12 35 4 0 8 -10 18 -22 22 -27 8 -38 22 -31 41 6 15 59 18 68 3z m105 -29 c0
-26 5 -41 16 -45 25 -10 34 2 34 45 0 21 5 39 10 39 6 0 10 -22 10 -48 l0 -49
-35 -1 c-30 -1 -37 3 -45 24 -13 33 -13 74 0 74 6 0 10 -18 10 -39z m135 30
c-14 -6 -22 -21 -26 -52 l-6 -44 -1 50 c-2 49 -1 51 26 52 22 1 24 0 7 -6z
m45 -75 c0 -3 -4 -8 -10 -11 -5 -3 -10 -1 -10 4 0 6 5 11 10 11 6 0 10 -2 10
-4z m-3637 -586 c30 -24 37 -25 37 -5 0 21 12 19 34 -7 13 -14 15 -23 8 -26
-13 -4 -17 -62 -4 -62 4 0 13 9 20 20 7 11 21 20 32 20 11 0 20 5 20 11 0 7
-10 9 -26 5 -19 -5 -25 -3 -22 6 6 18 59 23 69 6 5 -7 9 -30 9 -50 0 -34 -3
-38 -27 -39 -16 -1 -32 0 -38 1 -5 2 -25 2 -42 1 -32 -2 -33 0 -33 38 0 35 -4
42 -25 47 -14 3 -25 10 -25 15 0 5 -9 9 -20 9 -32 0 -23 -25 13 -35 41 -13 49
-47 14 -70 -28 -18 -77 -6 -77 20 0 17 16 20 25 5 9 -15 45 -12 45 4 0 7 -15
17 -32 22 -26 8 -34 16 -36 37 -3 21 2 29 20 36 32 13 32 13 61 -9z m-463 -42
c0 -60 -6 -72 -36 -82 -28 -9 -62 21 -43 38 8 8 13 8 16 -1 3 -7 11 -13 19
-13 10 0 14 13 14 45 0 38 -3 45 -20 45 -11 0 -20 5 -20 10 0 6 16 10 35 10
l35 0 0 -52z m150 38 c0 -8 6 -17 13 -20 10 -5 10 -7 0 -12 -15 -7 -18 -64 -3
-64 6 0 10 -5 10 -11 0 -6 -10 -9 -22 -7 -19 2 -24 11 -29 48 -3 24 -4 53 -1
62 5 21 32 24 32 4z m164 -8 c13 -14 15 -23 8 -26 -15 -5 -16 -62 -2 -62 6 0
10 -4 10 -10 0 -5 -11 -10 -25 -10 -22 0 -25 4 -25 40 0 45 -13 51 -41 18 -24
-30 -24 -38 1 -38 11 0 20 -4 20 -10 0 -5 -18 -10 -40 -10 -45 0 -48 7 -20 43
11 14 20 28 20 31 0 3 -9 6 -20 6 -11 0 -20 5 -20 10 0 6 23 10 50 10 38 0 50
4 50 15 0 21 12 19 34 -7z m450 0 c13 -14 15 -23 8 -26 -15 -5 -16 -62 -2 -62
6 0 10 -4 10 -10 0 -5 -11 -10 -25 -10 -23 0 -25 4 -25 41 0 36 -2 40 -22 37
-19 -2 -24 -10 -26 -40 -2 -25 -8 -38 -18 -38 -10 0 -14 13 -14 50 l0 50 40 0
c29 0 40 4 40 15 0 21 12 19 34 -7z m491 -8 l29 -30 -32 -32 c-33 -34 -58 -32
-27 2 18 20 18 20 -23 20 -23 0 -42 5 -42 10 0 6 19 10 42 10 39 0 40 1 25 18
-38 42 -12 43 28 2z m1145 0 c0 -13 5 -18 15 -14 25 10 45 -16 45 -57 0 -50
-18 -51 -22 -2 -2 27 -8 39 -20 41 -15 3 -18 -4 -18 -37 0 -23 -4 -41 -10 -41
-6 0 -10 30 -10 71 0 44 4 68 10 64 6 -3 10 -15 10 -25z m410 21 c0 -5 -6 -12
-12 -14 -10 -4 -9 -8 2 -17 11 -9 12 -13 3 -17 -8 -2 -13 -22 -13 -44 0 -55
-17 -49 -22 9 -3 30 0 55 9 70 14 22 33 30 33 13z m155 -35 c17 4 26 0 34 -14
14 -26 14 -82 1 -82 -5 0 -10 12 -10 28 0 36 -14 56 -34 49 -10 -4 -16 -19
-16 -42 0 -19 -4 -35 -10 -35 -12 0 -14 123 -2 134 4 4 8 -4 10 -18 3 -22 7
-25 27 -20z m-799 -17 l19 -51 22 51 c13 28 27 51 33 51 6 0 10 -28 10 -65 0
-37 -4 -65 -10 -65 -5 0 -10 19 -11 43 l0 42 -17 -43 c-9 -23 -20 -41 -25 -39
-6 2 -18 23 -28 47 l-18 45 0 -47 c-1 -27 -5 -48 -11 -48 -6 0 -10 28 -10 65
0 82 20 88 46 14z m504 41 c0 -5 -13 -10 -30 -10 -20 0 -30 -5 -30 -15 0 -10
10 -15 30 -15 17 0 30 -4 30 -10 0 -5 -13 -10 -30 -10 -23 0 -30 -4 -30 -20 0
-16 7 -20 30 -20 17 0 30 -4 30 -10 0 -5 -18 -10 -40 -10 l-40 0 0 65 0 65 40
0 c22 0 40 -4 40 -10z m-2582 -22 c7 -7 12 -20 12 -30 0 -13 -8 -18 -30 -18
-16 0 -30 -5 -30 -11 0 -7 11 -9 31 -5 22 4 29 2 27 -7 -6 -17 -56 -21 -74 -6
-30 24 -9 89 29 89 13 0 28 -5 35 -12z m770 0 c7 -7 12 -20 12 -30 0 -13 -8
-18 -30 -18 -16 0 -30 -5 -30 -11 0 -7 11 -9 31 -5 22 4 29 2 27 -7 -6 -17
-56 -21 -74 -6 -30 24 -9 89 29 89 13 0 28 -5 35 -12z m110 -40 c4 -56 -15
-66 -20 -10 -2 25 -8 37 -18 37 -10 0 -16 -12 -18 -37 -2 -25 -8 -38 -18 -38
-10 0 -14 13 -14 51 l0 50 43 -3 42 -3 3 -47z m1376 26 c27 -27 20 -44 -20
-44 -31 0 -35 -2 -24 -15 9 -11 17 -12 32 -4 16 9 19 8 16 -3 -3 -7 -15 -15
-28 -16 -26 -4 -50 20 -50 49 0 21 26 49 45 49 7 0 21 -7 29 -16z m186 5 c0
-5 -7 -9 -15 -9 -11 0 -15 -11 -15 -40 0 -22 -4 -40 -10 -40 -5 0 -10 22 -10
49 0 45 2 49 25 49 14 0 25 -4 25 -9z m220 1 c0 -4 -9 -10 -20 -13 -15 -4 -20
-14 -20 -41 0 -20 -4 -36 -10 -36 -5 0 -10 22 -10 48 0 47 1 49 30 50 17 0 30
-3 30 -8z m134 4 c11 -4 16 -19 16 -49 l0 -43 -37 1 c-50 3 -59 33 -14 50 37
14 41 31 6 25 -24 -5 -32 2 -18 15 8 9 27 9 47 1z m196 -5 c0 -5 -7 -9 -15 -9
-11 0 -15 -11 -15 -40 0 -22 -4 -40 -10 -40 -5 0 -10 21 -10 48 0 43 2 47 25
48 14 1 25 -2 25 -7z m78 -1 c7 -7 12 -20 12 -30 0 -13 -8 -18 -30 -18 -16 0
-30 -4 -30 -9 0 -14 27 -20 39 -8 13 13 26 3 16 -12 -8 -15 -48 -14 -63 1 -27
27 -8 88 28 88 9 0 21 -5 28 -12z m110 -40 c2 -29 -1 -48 -7 -48 -6 0 -11 18
-11 41 0 33 -3 40 -17 37 -13 -2 -19 -14 -21 -41 -5 -54 -22 -45 -22 12 l0 49
38 -1 c37 -2 37 -2 40 -49z m572 -1113 c0 -50 -4 -85 -10 -85 -6 0 -10 35 -10
85 0 50 4 85 10 85 6 0 10 -35 10 -85z m-6080 45 c25 -25 32 -54 28 -116 l-3
-49 -95 0 -95 0 -3 49 c-6 100 20 136 98 136 36 0 55 -5 70 -20z m6581 10 c10
-6 19 -18 19 -27 0 -14 -2 -14 -20 2 -27 24 -52 4 -48 -39 2 -25 7 -31 27 -31
29 0 40 21 14 28 -12 3 -8 5 10 6 31 1 36 -18 11 -43 -35 -36 -84 -7 -84 49 0
24 7 39 22 49 27 19 24 19 49 6z m809 0 c0 -5 -4 -10 -10 -10 -5 0 -10 5 -10
10 0 6 5 10 10 10 6 0 10 -4 10 -10z m130 -13 c0 -18 5 -23 28 -22 22 0 28 -5
30 -28 4 -37 -14 -58 -47 -54 -24 3 -26 7 -29 65 -2 39 1 62 8 62 5 0 10 -10
10 -23z m100 -36 c0 -33 -4 -63 -10 -66 -6 -4 -10 18 -10 59 0 37 4 66 10 66
6 0 10 -26 10 -59z m179 2 c7 10 18 17 23 17 6 0 5 -7 -2 -15 -10 -12 -10 -21
-1 -42 14 -30 9 -40 -9 -18 -16 19 -30 19 -30 -1 0 -8 -4 -12 -10 -9 -12 7
-14 108 -2 119 4 4 9 -9 12 -30 4 -33 6 -36 19 -21z m-1459 20 l1 -28 20 28
c26 34 47 36 25 2 -16 -25 -16 -28 4 -60 24 -40 9 -49 -16 -10 -9 14 -20 25
-25 25 -5 0 -9 -11 -9 -25 0 -14 -4 -25 -10 -25 -6 0 -10 27 -10 60 0 33 4 60
10 60 6 0 10 -12 10 -27z m97 -65 c-2 -18 -4 -4 -4 32 0 36 2 50 4 33 2 -18 2
-48 0 -65z m397 60 c8 -5 7 -8 -1 -8 -8 0 -13 -13 -13 -29 0 -16 6 -31 13 -34
6 -2 9 -8 4 -13 -13 -14 -36 19 -38 56 -3 40 11 75 19 50 3 -8 10 -18 16 -22z
m150 0 c8 -5 7 -8 -1 -8 -8 0 -13 -13 -13 -29 0 -16 6 -31 13 -34 6 -2 9 -8 4
-13 -13 -14 -36 19 -38 56 -3 40 11 75 19 50 3 -8 10 -18 16 -22z m132 -20
c-8 -14 -8 -23 2 -39 7 -12 11 -24 8 -27 -20 -19 -50 73 -34 102 9 16 11 16
23 0 10 -14 10 -22 1 -36z m212 45 c-38 -6 -40 -43 -2 -43 14 0 23 -4 19 -10
-3 -5 -15 -10 -26 -10 -10 0 -19 -7 -19 -15 0 -9 9 -15 25 -15 14 0 25 -4 25
-10 0 -5 -16 -10 -35 -10 l-35 0 0 60 0 60 38 -1 c30 -2 32 -3 10 -6z m-4190
-15 c7 -7 12 -37 12 -68 0 -31 -5 -61 -12 -68 -7 -7 -44 -12 -98 -12 -54 0
-91 5 -98 12 -7 7 -12 37 -12 68 0 31 5 61 12 68 7 7 44 12 98 12 54 0 91 -5
98 -12z m-2488 -63 c0 -30 -4 -57 -10 -60 -6 -4 -10 18 -10 60 0 42 4 64 10
60 6 -3 10 -30 10 -60z m40 0 c0 -30 -4 -57 -10 -60 -6 -4 -10 18 -10 60 0 42
4 64 10 60 6 -3 10 -30 10 -60z m580 2 c0 -62 0 -63 -30 -65 -21 -2 -32 4 -41
19 -16 31 3 69 36 69 18 0 25 5 25 20 0 11 2 20 5 20 3 0 5 -28 5 -63z m-1061
2 l15 -44 14 48 c7 26 18 47 23 47 6 0 7 -9 3 -22 -21 -68 -32 -92 -41 -95 -6
-2 -20 24 -32 57 -12 38 -16 60 -9 58 7 -3 19 -24 27 -49z m214 21 c8 0 7 -4
-1 -12 -7 -7 -12 -21 -12 -33 0 -12 5 -26 12 -33 9 -9 8 -12 -5 -12 -10 0 -19
11 -23 28 -3 15 -8 33 -10 40 -2 7 1 23 8 35 11 19 13 20 16 5 2 -10 9 -18 15
-18z m437 -20 c0 -47 2 -50 25 -50 23 0 25 3 25 50 0 28 5 50 10 50 14 0 12
-94 -2 -108 -7 -7 -21 -12 -33 -12 -12 0 -26 5 -33 12 -14 14 -16 108 -2 108
6 0 10 -22 10 -50z m168 32 c3 -11 0 -12 -14 -4 -21 10 -44 6 -44 -9 0 -5 16
-15 35 -23 19 -8 35 -21 35 -28 0 -36 -56 -51 -80 -23 -14 17 -7 19 19 6 9 -5
23 -6 30 -1 16 9 6 30 -14 30 -7 0 -21 7 -29 16 -23 23 -3 56 31 52 15 -2 28
-9 31 -16z m140 -42 c12 -33 17 -60 12 -60 -4 0 -10 7 -14 15 -3 8 -17 15 -31
15 -16 0 -25 -6 -25 -15 0 -8 -4 -15 -10 -15 -5 0 -10 2 -10 4 0 3 20 62 35
104 9 26 24 10 43 -48z m2202 50 c0 -5 -7 -10 -15 -10 -11 0 -15 -12 -15 -50
0 -27 -4 -50 -10 -50 -5 0 -10 23 -10 50 0 43 -3 50 -20 50 -11 0 -20 5 -20
10 0 6 20 10 45 10 25 0 45 -4 45 -10z m1010 -4 c20 -26 8 -61 -22 -64 -20 -2
-28 -9 -28 -23 0 -10 -4 -19 -10 -19 -6 0 -10 27 -10 60 0 59 0 60 29 60 16 0
34 -7 41 -14z m1760 -41 c0 -30 -4 -55 -10 -55 -5 0 -10 25 -10 55 0 30 5 55
10 55 6 0 10 -25 10 -55z m550 36 c15 -28 13 -31 -20 -31 -16 0 -30 -5 -30
-11 0 -7 10 -9 25 -6 16 3 24 0 22 -7 -2 -6 -14 -11 -28 -11 -30 0 -50 45 -29
69 17 22 47 20 60 -3z m85 9 c4 -7 -2 -9 -19 -4 -33 8 -34 -9 -1 -24 14 -6 25
-18 25 -26 0 -16 -34 -31 -50 -21 -18 11 -11 23 10 18 11 -3 20 0 20 6 0 6 -6
11 -14 11 -18 0 -39 27 -31 40 8 13 52 13 60 0z m97 -22 c2 -21 8 -33 18 -33
10 0 16 12 18 33 5 48 24 39 20 -10 -3 -35 -7 -42 -28 -45 -30 -4 -50 19 -50
59 0 39 18 35 22 -4z m198 26 c0 -3 -9 -18 -21 -32 l-21 -27 21 -3 c31 -5 25
-22 -7 -22 -40 0 -44 9 -22 40 25 35 25 38 -2 43 -14 3 -9 5 15 6 20 0 37 -2
37 -5z m144 -10 c11 -28 7 -34 -25 -34 -19 0 -28 -4 -23 -11 3 -6 15 -9 25 -6
20 5 26 -7 9 -18 -16 -10 -48 5 -55 25 -14 44 53 87 69 44z m176 -23 c0 -22
-4 -43 -10 -46 -6 -4 -10 12 -10 39 0 25 5 46 10 46 6 0 10 -18 10 -39z m88
-11 c4 -49 -14 -47 -20 3 -4 38 -22 39 -26 2 -6 -52 -22 -53 -22 -1 l0 47 33
-3 c30 -3 32 -5 35 -48z m169 -17 c-2 -16 -4 -5 -4 22 0 28 2 40 4 28 2 -13 2
-35 0 -50z m98 56 c11 -17 -3 -23 -20 -9 -20 16 -39 1 -33 -26 3 -14 12 -18
33 -17 26 2 27 1 13 -13 -33 -34 -80 14 -57 58 11 20 54 25 64 7z m169 -5 c11
-28 7 -34 -25 -34 -19 0 -28 -4 -23 -11 3 -6 15 -9 25 -6 20 5 26 -7 9 -18
-16 -10 -48 5 -55 25 -14 44 53 87 69 44z m-3759 -59 c0 -58 -21 -60 -27 -2
-6 51 0 73 15 58 6 -6 11 -31 12 -56z m-3858 -22 c-2 -16 -4 -5 -4 22 0 28 2
40 4 28 2 -13 2 -35 0 -50z m73 57 c0 -4 -7 -10 -15 -14 -9 -3 -15 -18 -15
-36 0 -18 -4 -29 -10 -25 -5 3 -10 23 -10 44 0 34 3 39 25 39 14 0 25 -4 25
-8z m90 -25 c0 -28 4 -35 20 -35 16 0 20 7 20 35 0 19 5 35 10 35 6 0 10 -20
10 -44 0 -41 -2 -44 -27 -44 -16 0 -34 5 -40 10 -15 12 -17 78 -3 78 6 0 10
-16 10 -35z m138 23 c22 -22 13 -38 -19 -38 -26 0 -29 -2 -19 -14 6 -8 19 -12
27 -9 11 4 14 2 9 -5 -12 -20 -46 -13 -57 12 -21 45 26 87 59 54z m170 0 c22
-22 13 -38 -19 -38 -26 0 -29 -2 -19 -14 6 -8 19 -12 27 -9 11 4 14 2 9 -5
-12 -20 -46 -13 -57 12 -21 45 26 87 59 54z m572 2 c0 -4 -7 -10 -15 -14 -9
-3 -15 -18 -15 -36 0 -18 -4 -29 -10 -25 -5 3 -10 23 -10 44 0 34 3 39 25 39
14 0 25 -4 25 -8z m80 -9 c15 -28 13 -31 -20 -31 -31 0 -41 -14 -16 -23 7 -3
19 0 26 6 10 9 11 9 8 -3 -11 -37 -68 -16 -68 24 0 44 50 63 70 27z m86 7 c5
-8 0 -9 -14 -6 -32 9 -38 -10 -7 -22 17 -7 25 -16 23 -28 -4 -21 -46 -29 -62
-11 -8 9 -6 10 11 6 28 -6 41 10 16 20 -23 8 -32 23 -26 40 6 16 49 17 59 1z
m80 0 c5 -8 0 -9 -14 -6 -32 9 -38 -10 -7 -22 17 -7 25 -16 23 -28 -4 -21 -46
-29 -62 -11 -8 9 -6 10 11 6 28 -6 41 10 16 20 -23 8 -32 23 -26 40 6 16 49
17 59 1z m82 0 c22 -22 13 -38 -19 -38 -26 0 -29 -2 -19 -14 6 -8 19 -12 27
-9 11 4 14 2 9 -5 -12 -20 -46 -13 -57 12 -21 45 26 87 59 54z m1752 1 c0 -4
-5 -9 -11 -11 -6 -2 -14 -19 -19 -38 l-8 -35 -1 45 c-1 39 2 46 19 46 11 0 20
-3 20 -7z m78 -37 l3 -43 -33 3 c-39 4 -45 28 -10 43 27 12 29 29 2 22 -11 -3
-20 -2 -20 2 0 14 14 22 35 19 16 -2 21 -12 23 -46z m89 -2 c1 -41 1 -42 -5
-10 -5 22 -14 36 -24 38 -15 3 -18 -4 -18 -32 0 -20 -4 -36 -10 -36 -5 0 -10
20 -10 44 0 44 0 44 33 43 31 -2 32 -4 34 -47z m80 33 c3 -7 -3 -9 -16 -6 -30
8 -26 -6 5 -17 16 -7 24 -16 22 -28 -4 -20 -45 -29 -62 -12 -8 9 -4 10 17 5
17 -5 27 -3 27 4 0 6 -4 11 -8 11 -5 0 -17 6 -27 14 -17 12 -17 16 -6 30 15
18 42 18 48 -1z m104 -4 c17 -33 3 -69 -26 -69 -16 0 -25 -6 -25 -15 0 -8 -4
-15 -10 -15 -6 0 -10 26 -10 58 0 56 0 57 30 59 21 2 33 -4 41 -18z m73 15
c11 -4 16 -19 16 -46 0 -38 -1 -39 -32 -36 -25 2 -33 8 -33 23 0 13 8 21 23
23 12 2 22 8 22 14 0 6 -9 8 -20 5 -20 -5 -26 3 -13 16 8 9 17 9 37 1z m86 -4
c0 -4 -7 -10 -15 -14 -9 -3 -15 -18 -15 -36 0 -16 -4 -30 -10 -30 -5 0 -10 20
-10 44 0 40 2 44 25 44 14 0 25 -4 25 -8z m68 -2 c20 -20 14 -38 -13 -38 -16
0 -25 -6 -25 -16 0 -13 6 -15 28 -9 20 5 24 4 16 -5 -7 -6 -22 -10 -35 -8 -18
2 -25 10 -27 31 -5 46 28 73 56 45z m100 -35 c2 -26 -1 -43 -7 -43 -6 0 -11
16 -11 35 0 24 -5 35 -15 35 -10 0 -15 -11 -15 -35 0 -19 -4 -35 -10 -35 -5 0
-10 19 -10 43 0 42 1 43 33 42 31 0 32 -2 35 -42z m140 35 c20 -20 14 -38 -13
-38 -16 0 -25 -6 -25 -16 0 -13 6 -15 28 -9 20 5 24 4 16 -5 -7 -6 -22 -10
-35 -8 -18 2 -25 10 -27 31 -5 46 28 73 56 45z m222 1 c0 -5 -7 -9 -15 -9 -10
0 -15 -11 -15 -35 0 -19 -4 -35 -10 -35 -5 0 -10 19 -10 43 0 38 2 42 25 43
14 1 25 -2 25 -7z m68 -1 c20 -20 14 -38 -13 -38 -16 0 -25 -6 -25 -16 0 -13
6 -15 28 -9 20 5 24 4 16 -5 -7 -6 -22 -10 -35 -8 -18 2 -25 10 -27 31 -5 46
28 73 56 45z m52 -39 c0 -21 -4 -39 -10 -39 -5 0 -10 21 -10 46 0 27 4 43 10
39 6 -3 10 -24 10 -46z m78 33 c3 -9 -3 -11 -22 -6 -34 8 -34 -4 0 -16 34 -13
29 -44 -9 -48 -15 -2 -27 2 -27 8 0 7 8 9 20 5 12 -4 20 -2 20 5 0 7 -9 14
-20 17 -20 5 -27 33 -13 47 11 11 46 3 51 -12z m80 6 c20 -20 14 -38 -13 -38
-16 0 -25 -6 -25 -16 0 -13 6 -15 28 -9 20 5 24 4 16 -5 -7 -6 -22 -10 -35 -8
-18 2 -25 10 -27 31 -5 46 28 73 56 45z m1282 -33 c0 -19 -4 -35 -10 -35 -5 0
-10 16 -10 35 0 19 5 35 10 35 6 0 10 -16 10 -35z m-5970 -1009 c28 -35 -11
-93 -47 -70 -36 22 -23 84 17 84 10 0 23 -7 30 -14z m165 -6 c15 -17 16 -24 7
-45 -19 -42 -82 -31 -82 14 0 50 42 68 75 31z m2987 -15 c4 -5 8 -20 8 -32 0
-20 -5 -23 -35 -23 -33 0 -35 2 -35 33 0 29 3 33 28 32 15 0 30 -4 34 -10z
m125 -17 c-3 -7 -5 -2 -5 12 0 14 2 19 5 13 2 -7 2 -19 0 -25z m820 0 c-3 -7
-5 -2 -5 12 0 14 2 19 5 13 2 -7 2 -19 0 -25z m-4269 5 c-2 -10 -10 -18 -18
-18 -8 0 -16 8 -18 18 -2 12 3 17 18 17 15 0 20 -5 18 -17z m3706 -1 c3 -5 -1
-9 -9 -9 -8 0 -12 4 -9 9 3 4 7 8 9 8 2 0 6 -4 9 -8z m-3397 -318 c2 -6 -8
-19 -22 -28 -25 -16 -25 -16 -25 14 0 27 3 31 22 28 12 -2 23 -8 25 -14z m79
-1 c5 3 10 -5 10 -17 1 -15 -4 -22 -17 -22 -15 0 -19 8 -19 31 0 21 3 26 9 16
5 -7 13 -11 17 -8z m50 8 c-18 -7 -18 -8 -3 -14 9 -3 17 -13 17 -22 0 -17 -25
-21 -35 -5 -4 6 1 7 12 4 17 -5 17 -5 1 9 -25 20 -22 37 5 36 20 0 20 -1 3 -8z
m166 -21 c-5 -32 -29 -41 -39 -14 -4 11 1 22 12 30 27 20 32 17 27 -16z m55
10 c-4 -28 -14 -35 -31 -21 -19 16 -10 41 15 41 13 0 18 -6 16 -20z m6869 -5
c1 -8 -2 -15 -7 -15 -5 0 -9 10 -9 22 0 23 12 17 16 -7z m184 -4 c0 -13 -2
-13 -9 -2 -7 11 -9 11 -14 0 -3 -8 -6 -5 -6 8 -1 16 3 21 14 17 8 -4 15 -14
15 -23z m-7362 -9 c2 -14 -2 -22 -12 -22 -22 0 -30 19 -11 26 14 6 14 9 3 16
-10 8 -10 9 2 5 8 -2 16 -13 18 -25z m150 0 c2 -14 -2 -22 -12 -22 -19 0 -29
17 -22 36 8 22 30 12 34 -14z m51 1 l-1 -28 -8 25 -7 25 -11 -25 -11 -25 0 28
c-1 21 4 27 19 27 15 0 20 -6 19 -27z m7043 11 c-9 -7 -19 -9 -22 -6 -3 4 -9
10 -13 13 -4 3 6 6 23 6 26 0 27 -2 12 -13z m76 -9 c-3 -3 -9 2 -12 12 -6 14
-5 15 5 6 7 -7 10 -15 7 -18z m-58 -5 c0 -5 -4 -10 -10 -10 -5 0 -10 5 -10 10
0 6 5 10 10 10 6 0 10 -4 10 -10z m-6496 -286 c30 -30 10 -74 -34 -74 -29 0
-30 2 -30 45 0 41 2 45 24 45 14 0 32 -7 40 -16z m186 1 c0 -8 9 -15 20 -15
16 0 20 -7 20 -30 0 -16 -4 -30 -10 -30 -5 0 -10 11 -10 25 0 14 -4 25 -10 25
-5 0 -10 -11 -10 -25 0 -14 -4 -25 -10 -25 -5 0 -10 20 -10 45 0 25 5 45 10
45 6 0 10 -7 10 -15z m87 -13 c20 4 38 -24 30 -46 -4 -9 -17 -16 -32 -16 -23
0 -25 3 -24 48 1 26 3 39 6 29 2 -10 11 -16 20 -15z m303 -17 c0 -43 -1 -45
-29 -45 -30 0 -45 19 -35 45 4 8 15 15 25 15 10 0 19 7 19 15 0 8 5 15 10 15
6 0 10 -20 10 -45z m109 31 c7 -8 11 -27 9 -43 -2 -23 -9 -29 -32 -31 -31 -4
-46 10 -46 44 0 40 45 59 69 30z m-539 -27 c0 -4 -8 -6 -17 -3 -10 2 -8 -1 5
-7 12 -7 21 -17 19 -23 -5 -15 -57 -20 -57 -6 0 7 9 9 23 6 l22 -6 -22 11
c-25 13 -30 35 -10 42 15 5 37 -3 37 -14z m234 -5 c10 -26 -5 -45 -33 -42 -31
4 -41 36 -16 54 19 14 41 9 49 -12z m76 -19 c0 -21 -5 -25 -30 -25 -36 0 -41
26 -7 41 l22 10 -22 -5 c-24 -4 -32 9 -10 17 21 8 47 -13 47 -38z m384 19 c3
-9 -1 -14 -14 -14 -10 0 -22 -5 -26 -12 -5 -8 0 -9 14 -6 12 4 22 2 22 -3 0
-5 -11 -9 -25 -9 -14 0 -25 2 -25 4 0 2 -3 11 -6 19 -7 18 22 48 41 41 7 -3
16 -12 19 -20z m226 -4 c0 -6 -9 -10 -20 -10 -11 0 -20 -5 -20 -11 0 -6 9 -8
23 -4 17 6 19 4 11 -5 -16 -16 -48 -9 -52 13 -6 28 16 49 39 36 10 -5 19 -14
19 -19z m-982 -12 c3 -25 0 -28 -27 -28 -37 0 -41 22 -8 39 l22 11 -22 -6
c-14 -3 -23 -1 -23 6 0 6 12 10 28 8 21 -2 28 -9 30 -30z m415 25 c-7 -2 -13
-16 -13 -29 0 -13 -4 -24 -10 -24 -5 0 -10 14 -10 30 0 25 4 30 23 29 12 0 16
-3 10 -6z m238 -21 c0 -12 3 -11 9 6 14 34 31 27 19 -8 -10 -26 -39 -43 -39
-22 0 4 -3 18 -7 31 -4 17 -3 22 5 17 7 -4 12 -15 13 -24z m152 21 c-7 -2 -13
-16 -13 -29 0 -13 -4 -24 -10 -24 -5 0 -10 14 -10 30 0 25 4 30 23 29 12 0 16
-3 10 -6z m38 -21 c0 -12 3 -11 9 6 14 34 31 27 19 -8 -10 -26 -39 -43 -39
-22 0 4 -3 18 -7 31 -4 17 -3 22 5 17 7 -4 12 -15 13 -24z m66 -2 c0 -16 -4
-30 -9 -30 -4 0 -8 14 -8 30 0 17 4 30 8 30 5 0 9 -13 9 -30z m104 8 l0 -23 9
23 c11 26 30 29 30 5 0 -15 2 -14 15 3 14 19 14 19 15 -1 0 -11 -5 -27 -10
-35 -9 -13 -12 -12 -25 4 -13 17 -15 18 -15 3 0 -16 -30 -25 -30 -9 0 4 -3 17
-6 30 -4 13 -2 22 5 22 6 0 11 -10 12 -22z m-854 -230 c-3 -7 -5 -2 -5 12 0
14 2 19 5 13 2 -7 2 -19 0 -25z m860 10 c-3 -8 -6 -5 -6 6 -1 11 2 17 5 13 3
-3 4 -12 1 -19z m-600 -10 c-3 -8 -6 -5 -6 6 -1 11 2 17 5 13 3 -3 4 -12 1
-19z m810 -10 c-3 -7 -5 -2 -5 12 0 14 2 19 5 13 2 -7 2 -19 0 -25z m-607 18
c0 -3 -4 -8 -10 -11 -5 -3 -10 -1 -10 4 0 6 5 11 10 11 6 0 10 -2 10 -4z
m-1877 -131 c-3 -9 -8 -14 -10 -11 -3 3 -2 9 2 15 9 16 15 13 8 -4z m27 -15
c-8 -5 -17 -7 -19 -4 -3 3 1 9 9 14 8 5 17 7 19 4 3 -3 -1 -9 -9 -14z m4737
-172 c-3 -7 -5 -2 -5 12 0 14 2 19 5 13 2 -7 2 -19 0 -25z m-3339 5 c-6 -7
-12 -13 -13 -13 -2 0 -5 6 -8 13 -3 7 3 13 14 13 13 0 15 -3 7 -13z m146 6 c3
-3 -4 -5 -14 -6 -11 -1 -22 2 -24 6 -5 8 30 8 38 0z m1536 -4 c0 -8 -2 -15 -4
-15 -2 0 -6 7 -10 15 -3 8 -1 15 4 15 6 0 10 -7 10 -15z m63 -2 c-4 -10 -9
-11 -19 -2 -18 15 -18 15 5 15 11 0 17 -5 14 -13z m102 6 c11 -16 1 -19 -13
-3 -7 8 -8 14 -3 14 5 0 13 -5 16 -11z m67 -11 c-3 -14 -7 -16 -12 -8 -4 7
-13 16 -20 20 -7 5 -3 8 13 8 19 0 23 -5 19 -20z m98 2 c0 -11 -2 -20 -4 -20
-2 0 -6 9 -9 20 -3 11 -1 20 4 20 5 0 9 -9 9 -20z m3140 16 c0 -2 -8 -10 -17
-17 -16 -13 -17 -12 -4 4 13 16 21 21 21 13z m70 0 c0 -2 -7 -7 -16 -10 -8 -3
-12 -2 -9 4 6 10 25 14 25 6z m27 -18 c-3 -8 -6 -5 -6 6 -1 11 2 17 5 13 3 -3
4 -12 1 -19z m111 1 c3 -12 2 -12 -6 0 -6 8 -15 10 -22 6 -9 -5 -11 -4 -6 4
10 15 28 10 34 -10z m47 11 c-3 -5 -12 -10 -18 -10 -7 0 -6 4 3 10 19 12 23
12 15 0z m-6800 -11 c3 -4 -6 -6 -20 -6 -14 0 -27 3 -30 6 -5 9 41 8 50 0z
m1285 1 c0 -5 -5 -10 -11 -10 -5 0 -7 5 -4 10 3 6 8 10 11 10 2 0 4 -4 4 -10z
m195 0 c-3 -5 -11 -10 -16 -10 -6 0 -7 5 -4 10 3 6 11 10 16 10 6 0 7 -4 4
-10z m-256 -114 c9 -11 9 -17 -2 -28 -12 -11 -12 -14 2 -25 14 -11 12 -12 -11
-13 -31 0 -36 11 -13 30 8 7 15 17 15 22 0 6 -7 8 -15 4 -15 -5 -20 5 -8 17
10 11 19 8 32 -7z m41 -15 c-7 -14 -7 -21 0 -21 5 0 10 6 10 13 0 6 5 4 11 -6
8 -14 8 -22 0 -30 -8 -8 -11 -8 -11 1 0 7 -9 12 -20 12 -20 0 -20 1 -5 31 9
17 19 29 22 26 2 -3 0 -15 -7 -26z m1698 11 c-22 -4 -24 -42 -2 -42 8 0 12 -5
9 -10 -10 -16 -45 8 -45 30 0 21 29 42 45 32 6 -4 2 -8 -7 -10z m69 2 c2 -5
-8 -9 -22 -9 -27 0 -33 10 -12 18 16 7 30 3 34 -9z m43 -13 c-7 -14 -7 -21 0
-21 5 0 10 6 10 13 0 6 5 4 11 -6 15 -25 3 -37 -25 -24 -23 11 -23 13 -9 40 8
16 17 27 20 24 2 -3 0 -15 -7 -26z m86 14 c4 -8 1 -22 -6 -30 -9 -10 -9 -15
-1 -15 6 0 11 -4 11 -10 0 -5 -11 -10 -25 -10 -31 0 -31 7 -2 38 l22 25 -22
-6 c-24 -5 -32 8 -10 16 21 9 27 7 33 -8z m94 5 c0 -5 -8 -11 -17 -11 -17 -1
-17 -2 0 -6 21 -6 23 -41 1 -50 -8 -3 -20 -1 -27 6 -8 8 -5 11 11 11 12 0 22
5 22 11 0 6 -9 8 -20 4 -15 -5 -20 -2 -20 13 0 10 3 22 7 25 10 11 43 8 43 -3z
m58 1 c19 -12 11 -65 -10 -69 -24 -5 -42 32 -28 58 12 22 18 24 38 11z m1392
-1 c0 -5 -8 -11 -17 -11 -16 -1 -16 -2 -1 -6 9 -2 19 -10 22 -18 7 -19 -20
-39 -41 -29 -16 7 -15 8 5 11 12 3 22 9 22 14 0 6 -9 7 -20 4 -15 -5 -20 -2
-20 13 0 10 3 22 7 25 10 11 43 8 43 -3z m1737 -5 c2 -5 -8 -10 -22 -10 -25 0
-31 6 -18 19 9 9 36 3 40 -9z m63 -2 c0 -10 -9 -29 -20 -43 -23 -30 -27 -14
-4 18 14 21 14 22 -6 22 -12 0 -18 5 -15 10 11 17 45 11 45 -7z m47 1 c6 -15
8 -15 21 2 14 18 14 18 8 0 -4 -12 0 -23 11 -32 14 -10 15 -15 6 -24 -14 -15
-36 -3 -29 17 3 8 1 11 -4 8 -6 -3 -10 -2 -10 4 0 6 -6 8 -14 5 -16 -6 -30 11
-21 26 9 15 25 12 32 -6z m-6550 0 c-3 -3 -12 -4 -19 -1 -8 3 -5 6 6 6 11 1
17 -2 13 -5z m861 -26 c-2 -13 -7 -23 -12 -23 -5 0 -10 10 -11 23 -1 13 4 22
12 22 9 0 13 -8 11 -22z m2169 -4 c8 -21 -12 -38 -34 -29 -16 7 -15 9 7 15 14
5 19 8 13 9 -15 1 -18 21 -3 21 6 0 13 -7 17 -16z m3411 -7 c4 -20 -25 -34
-40 -19 -15 15 -1 44 19 40 10 -2 19 -11 21 -21z m104 -19 c-7 -7 -12 -8 -12
-2 0 14 12 26 19 19 2 -3 -1 -11 -7 -17z m-3352 2 c0 -5 -2 -10 -4 -10 -3 0
-8 5 -11 10 -3 6 -1 10 4 10 6 0 11 -4 11 -10z m-3190 -112 c0 -5 -4 -7 -9 -4
-5 4 -11 0 -14 -6 -3 -7 -4 -3 -4 8 1 21 27 23 27 2z m1215 -348 c3 -5 -2 -10
-12 -11 -15 0 -14 -2 5 -11 12 -6 22 -17 22 -25 0 -19 -29 -28 -43 -13 -10 10
-8 12 6 7 24 -9 22 5 -4 21 -16 11 -18 16 -9 28 14 16 26 18 35 4z m37 -47
c-7 -36 -12 -27 -11 20 0 30 3 36 8 23 4 -11 6 -30 3 -43z m389 8 c0 -10 4 -7
10 7 5 13 16 23 26 21 19 -1 29 -1 39 4 4 1 8 -13 9 -30 2 -18 -1 -30 -6 -27
-5 3 -9 13 -9 23 0 12 -7 17 -22 16 -13 -1 -23 -8 -23 -16 0 -8 8 -13 19 -11
11 2 15 -1 11 -8 -7 -11 -36 -9 -69 5 -12 5 -21 3 -27 -6 -13 -21 -12 12 2 48
10 27 11 27 25 9 8 -11 14 -27 15 -35z m4236 37 c5 -7 7 -26 3 -43 -5 -26 -7
-27 -13 -11 -7 19 -8 19 -22 0 -13 -18 -14 -17 -15 17 0 20 3 39 7 42 10 11
30 8 40 -5z m328 2 c3 -5 -2 -10 -11 -10 -16 0 -16 -1 2 -14 14 -11 20 -11 22
-3 11 37 11 37 32 20 11 -10 19 -29 19 -43 -1 -20 -2 -21 -6 -5 -8 34 -23 41
-23 11 0 -23 -3 -26 -13 -17 -10 7 -17 7 -24 0 -8 -8 -16 -8 -30 0 -16 11 -16
11 5 6 28 -8 29 6 1 23 -16 11 -18 16 -9 28 14 16 26 18 35 4z m-4351 -40 c1
-16 -2 -30 -6 -30 -5 0 -8 9 -8 20 0 28 -20 25 -21 -2 -2 -23 -2 -23 -6 0 -3
15 2 28 14 37 22 16 26 13 27 -25z m4276 4 c0 -21 -4 -33 -10 -29 -5 3 -10 19
-10 36 0 16 5 29 10 29 6 0 10 -16 10 -36z m445 -4 c2 -16 -1 -28 -5 -25 -10
6 -19 53 -12 60 9 9 15 -3 17 -35z m-5295 0 c0 -16 -2 -30 -4 -30 -2 0 -6 14
-8 30 -3 17 -1 30 4 30 4 0 8 -13 8 -30z m78 18 c8 -8 12 -8 12 -1 0 5 10 10
22 9 29 -1 36 -35 12 -53 -24 -17 -34 -16 -34 3 0 14 -3 14 -15 4 -8 -7 -15
-9 -15 -4 0 5 -4 2 -10 -6 -13 -21 -18 -10 -13 28 5 33 20 41 41 20z m79 -35
c-3 -10 -5 -2 -5 17 0 19 2 27 5 18 2 -10 2 -26 0 -35z m60 12 c1 -18 -1 -22
-4 -10 -8 31 -23 42 -23 17 0 -12 -4 -22 -10 -22 -5 0 -10 8 -10 18 0 45 44
41 47 -3z m63 4 c0 -47 -41 -60 -48 -15 -5 29 5 45 27 43 16 -1 21 -8 21 -28z
m187 -16 c-3 -10 -5 -2 -5 17 0 19 2 27 5 18 2 -10 2 -26 0 -35z m43 31 c0 11
3 17 6 13 4 -3 3 -19 -1 -34 -6 -27 -7 -27 -21 -9 -8 11 -14 27 -14 35 0 11 4
10 15 -5 14 -19 14 -19 15 0z m108 1 c14 25 15 5 2 -29 -14 -37 -25 -32 -27
12 -1 26 0 31 6 17 8 -19 8 -19 19 0z m4037 5 c5 -8 11 -7 21 1 12 10 17 9 27
0 9 -10 8 -11 -5 -6 -13 5 -18 2 -18 -9 0 -9 8 -16 17 -16 13 0 14 -3 5 -12
-9 -9 -16 -8 -30 5 -21 19 -42 22 -42 7 0 -5 8 -7 18 -3 14 5 15 3 4 -8 -10
-11 -15 -11 -28 3 -9 9 -14 24 -11 32 7 18 33 21 42 6z m100 0 c5 -8 11 -7 21
1 22 18 44 3 43 -28 -1 -21 -3 -23 -6 -8 -8 31 -23 42 -23 17 0 -12 -4 -22
-10 -22 -5 0 -10 5 -10 10 0 6 -9 10 -21 10 -11 0 -17 -5 -14 -10 4 -6 11 -8
16 -5 5 4 9 1 9 -4 0 -17 -30 -13 -36 4 -12 31 15 60 31 35z m252 -37 c-3 -10
-5 -2 -5 17 0 19 2 27 5 18 2 -10 2 -26 0 -35z m61 23 c4 -18 -21 -46 -40 -46
-10 0 -11 54 -1 64 13 12 38 1 41 -18z m60 0 c2 -10 -1 -23 -7 -29 -8 -8 -11
-3 -11 18 0 31 -15 25 -23 -10 -3 -13 -5 -10 -6 11 -1 26 3 31 21 30 14 -1 24
-9 26 -20z m27 14 c5 -8 11 -7 20 0 15 12 35 6 35 -11 0 -5 -7 -9 -15 -9 -8 0
-15 -5 -15 -11 0 -6 7 -8 18 -4 13 5 14 4 5 -6 -10 -10 -15 -9 -28 1 -11 9
-15 9 -15 1 0 -21 -17 -2 -22 24 -5 25 5 34 17 15z m113 -24 c2 -18 0 -26 -7
-21 -6 3 -11 16 -11 28 0 24 -16 13 -23 -18 -3 -13 -5 -10 -6 11 -1 26 3 31
22 30 16 -1 23 -8 25 -30z m77 24 c4 -6 -1 -7 -12 -4 -16 5 -16 4 1 -10 16
-13 17 -19 8 -28 -9 -9 -15 -9 -24 1 -11 10 -9 11 7 6 19 -6 19 -6 1 9 -10 8
-15 19 -11 25 8 14 22 14 30 1z m-5315 -20 c0 -11 -4 -20 -10 -20 -5 0 -10 9
-10 20 0 11 5 20 10 20 6 0 10 -9 10 -20z m4550 -335 c0 -7 6 -15 13 -18 6 -2
0 -4 -15 -3 -25 1 -42 16 -18 16 5 0 6 7 3 17 -4 11 -3 14 5 9 7 -4 12 -13 12
-21z m277 8 c3 -7 -5 -17 -16 -23 -18 -9 -21 -8 -21 8 0 32 28 43 37 15z m119
-23 c7 0 15 6 17 13 3 7 6 5 6 -6 1 -13 -6 -17 -29 -15 -25 2 -30 6 -29 28 l0
25 11 -22 c6 -13 17 -23 24 -23z m-306 10 c8 13 10 12 10 -2 0 -11 -8 -18 -20
-18 -11 0 -20 6 -20 14 0 9 -9 12 -27 10 -28 -4 -28 -4 -3 5 18 6 28 4 38 -8
11 -14 14 -14 22 -1z m105 10 c9 14 25 3 24 -18 0 -15 -1 -15 -8 1 -6 17 -8
17 -20 3 -7 -9 -21 -16 -30 -15 -10 0 -11 2 -3 6 6 2 12 9 12 14 0 6 -5 7 -12
3 -7 -4 -8 -3 -4 5 6 9 11 9 21 1 9 -8 15 -8 20 0z m151 -2 c4 -7 3 -8 -4 -4
-7 4 -12 3 -12 -3 0 -5 6 -12 13 -14 7 -3 5 -6 -5 -6 -18 -1 -24 19 -11 32 9
9 11 9 19 -5z m-5269 -4 c-3 -3 -12 -4 -19 -1 -8 3 -5 6 6 6 11 1 17 -2 13 -5z
m30 -31 c-3 -10 -5 -4 -5 12 0 17 2 24 5 18 2 -7 2 -21 0 -30z m5027 22 c-4
-8 -10 -15 -15 -15 -4 0 -6 7 -3 15 4 8 10 15 15 15 4 0 6 -7 3 -15z m176 0
c0 -8 -7 -15 -15 -15 -13 0 -14 3 -3 15 16 18 18 18 18 0z m141 -5 c6 0 7 5 4
10 -4 6 6 10 22 9 15 0 22 -3 15 -6 -6 -2 -9 -10 -6 -15 4 -6 2 -8 -4 -4 -6 3
-14 2 -17 -4 -8 -13 -35 6 -34 24 0 7 2 6 6 -1 2 -7 9 -13 14 -13z m-5374 -26
c-3 -3 -12 -4 -19 -1 -8 3 -5 6 6 6 11 1 17 -2 13 -5z m1967 -53 c3 -5 -1 -14
-9 -21 -10 -9 -15 -9 -15 -1 0 6 6 11 13 11 8 0 7 4 -3 10 -9 6 -10 10 -3 10
6 0 14 -4 17 -9z m64 -5 c-2 -1 -10 -7 -19 -14 -13 -10 -18 -10 -22 0 -3 8 5
14 20 14 13 1 23 1 21 0z m85 -12 c-10 -7 -25 -13 -33 -13 -10 0 -11 2 -2 6 6
2 10 8 8 11 -2 4 7 8 20 8 23 2 24 1 7 -12z m53 4 c5 -7 3 -8 -6 -3 -10 6 -12
4 -6 -11 5 -14 4 -16 -5 -7 -6 6 -8 16 -5 22 9 14 13 14 22 -1z m27 -3 c4 -8
3 -16 -1 -19 -4 -3 -9 4 -9 15 -2 23 3 25 10 4z m-133 -5 c0 -5 -4 -10 -10
-10 -5 0 -10 5 -10 10 0 6 5 10 10 10 6 0 10 -4 10 -10z m2865 -180 c3 -6 -1
-7 -9 -4 -10 4 -16 1 -16 -8 0 -25 13 -29 33 -11 11 10 17 13 14 6 -4 -6 -3
-14 3 -18 5 -3 10 2 10 11 0 10 3 15 6 11 4 -3 4 -14 0 -23 -5 -13 -9 -14 -20
-5 -9 8 -16 8 -20 2 -10 -15 -36 -1 -36 18 0 29 22 42 35 21z m175 -13 c0 -14
-6 -24 -15 -24 -8 0 -12 4 -9 9 3 4 0 8 -5 8 -6 0 -11 -4 -11 -10 0 -16 -27
-11 -34 6 -5 14 -4 15 9 4 12 -10 15 -10 15 0 0 7 8 10 20 7 13 -3 20 0 20 9
0 8 2 14 5 14 3 0 5 -10 5 -23z m60 -2 c0 -20 -4 -24 -25 -23 -14 1 -25 8 -25
16 0 7 4 11 9 7 6 -3 16 1 23 9 17 20 18 20 18 -9z m139 -2 c0 -16 -3 -22 -6
-15 -2 6 -9 12 -14 12 -6 0 -7 -5 -3 -11 4 -7 -1 -7 -16 1 -20 11 -22 10 -17
-4 4 -10 3 -15 -3 -11 -21 13 -10 35 17 33 14 -2 28 3 31 10 7 21 12 13 11
-15z m41 17 c-8 -5 -10 -10 -5 -10 6 0 11 -8 11 -19 0 -11 -5 -17 -13 -14 -24
9 -14 53 11 53 6 0 4 -5 -4 -10z m-120 -10 c0 -5 -2 -10 -4 -10 -3 0 -8 5 -11
10 -3 6 -1 10 4 10 6 0 11 -4 11 -10z m147 -22 c-3 -7 -5 -2 -5 12 0 14 2 19
5 13 2 -7 2 -19 0 -25z m100 0 c-3 -7 -5 -2 -5 12 0 14 2 19 5 13 2 -7 2 -19
0 -25z m-480 0 c-3 -8 -6 -5 -6 6 -1 11 2 17 5 13 3 -3 4 -12 1 -19z m20 0
c-3 -8 -6 -5 -6 6 -1 11 2 17 5 13 3 -3 4 -12 1 -19z m187 7 c3 -9 0 -15 -9
-15 -9 0 -12 6 -9 15 4 8 7 15 9 15 2 0 5 -7 9 -15z m216 4 c0 -5 -5 -7 -12
-3 -8 5 -9 2 -5 -10 4 -10 3 -15 -3 -11 -15 10 -12 35 5 35 8 0 15 -5 15 -11z
m32 -13 c7 4 8 2 4 -5 -10 -15 -26 -4 -25 17 1 15 2 15 6 -1 2 -9 9 -14 15
-11z m45 2 c-3 -8 -6 -5 -6 6 -1 11 2 17 5 13 3 -3 4 -12 1 -19z m93 10 c0 -9
3 -9 12 0 7 7 19 12 28 11 10 0 11 -2 3 -6 -7 -2 -13 -9 -13 -14 0 -6 5 -7 12
-3 7 4 8 3 4 -5 -6 -8 -12 -9 -20 -2 -7 6 -16 8 -20 4 -4 -4 -11 -1 -16 7 -7
12 -12 11 -28 -4 -15 -13 -22 -14 -28 -5 -4 8 -3 10 4 5 7 -4 12 -1 12 6 0 8
11 15 25 16 14 1 25 -4 25 -10z m80 -3 c7 -9 8 -15 2 -15 -5 0 -12 7 -16 15
-3 8 -4 15 -2 15 2 0 9 -7 16 -15z m-740 -297 c0 -17 3 -19 12 -10 7 7 16 12
21 12 14 0 2 -23 -14 -26 -7 -1 -21 -3 -29 -5 -10 -3 -16 5 -18 24 -2 19 1 27
12 27 10 0 16 -9 16 -22z m160 0 c0 -19 2 -20 10 -8 8 13 10 13 10 -2 0 -12 5
-16 18 -12 11 4 13 3 5 -3 -7 -5 -25 -8 -40 -8 -23 1 -29 7 -31 28 -2 19 1 27
12 27 10 0 16 -9 16 -22z m145 -8 c0 -27 -22 -39 -31 -16 -8 22 3 49 19 43 6
-2 12 -14 12 -27z m-208 -12 c-3 -7 -5 -2 -5 12 0 14 2 19 5 13 2 -7 2 -19 0
-25z m298 18 c9 4 13 -1 12 -15 -1 -13 -5 -17 -12 -11 -6 5 -17 5 -25 0 -17
-10 -30 -4 -30 15 0 14 33 26 38 13 2 -4 10 -4 17 -2z m-322 -11 c4 -8 1 -17
-6 -21 -7 -4 -9 -4 -5 1 4 4 3 14 -3 22 -7 8 -8 13 -1 13 5 0 12 -7 15 -15z
m167 0 c0 -5 -5 -17 -10 -25 -8 -12 -10 -11 -10 7 0 12 -6 23 -12 26 -7 3 -3
4 10 4 12 -1 22 -6 22 -12z m87 -7 c-3 -8 -6 -5 -6 6 -1 11 2 17 5 13 3 -3 4
-12 1 -19z m107 7 c-4 -8 -8 -15 -10 -15 -2 0 -4 7 -4 15 0 8 4 15 10 15 5 0
7 -7 4 -15z m-2052 -475 l3 -460 -62 0 -63 0 0 453 c0 250 3 457 7 460 3 4 30
7 59 7 l54 0 2 -460z m-3509 435 c-3 -9 -8 -14 -10 -11 -3 3 -2 9 2 15 9 16
15 13 8 -4z m-546 -17 c2 -17 0 -19 -7 -8 -5 8 -6 18 -4 22 8 12 10 10 11 -14z
m63 -13 c0 -5 -5 -3 -10 5 -5 8 -10 20 -10 25 0 6 5 3 10 -5 5 -8 10 -19 10
-25z m193 12 c7 5 27 8 44 9 25 0 30 -2 22 -12 -8 -10 -42 -12 -91 -5 -4 1 -4
9 0 19 6 16 7 16 10 -1 2 -10 8 -14 15 -10z m347 -8 c0 -10 -3 -19 -7 -19 -5
0 -8 11 -8 24 0 13 3 22 8 19 4 -2 7 -13 7 -24z m-645 2 c-3 -6 -11 -11 -16
-11 -5 0 -4 6 3 14 14 16 24 13 13 -3z m225 4 c0 -8 -4 -15 -10 -15 -5 0 -7 7
-4 15 4 8 8 15 10 15 2 0 4 -7 4 -15z m167 -7 c-3 -8 -6 -5 -6 6 -1 11 2 17 5
13 3 -3 4 -12 1 -19z m30 0 c-3 -8 -6 -5 -6 6 -1 11 2 17 5 13 3 -3 4 -12 1
-19z m30 0 c-3 -8 -6 -5 -6 6 -1 11 2 17 5 13 3 -3 4 -12 1 -19z m158 -8 c3
-5 1 -10 -4 -10 -6 0 -11 5 -11 10 0 6 2 10 4 10 3 0 8 -4 11 -10z m4493 -432
l2 -428 -64 0 -65 0 -1 423 c0 233 3 427 7 431 4 4 32 6 63 4 l55 -3 3 -427z
m-1674 376 c3 -9 6 -193 6 -410 l0 -394 -65 0 -65 0 0 403 c0 222 3 407 7 410
3 4 30 7 59 7 38 0 53 -4 58 -16z m1336 -439 l0 -365 -60 0 -60 0 0 365 0 365
60 0 60 0 0 -365z m-1670 -10 l0 -355 -60 0 -60 0 0 355 0 355 60 0 60 0 0
-355z m670 -30 l0 -325 -60 0 -60 0 0 325 0 325 60 0 60 0 0 -325z m-1002 -32
l2 -293 -65 0 -65 0 0 288 c0 159 3 292 7 296 4 4 32 6 63 4 l55 -3 3 -292z
m1670 -10 l2 -283 -60 0 -60 0 0 285 0 286 58 -3 57 -3 3 -282z m-2010 -10 l2
-273 -60 0 -60 0 0 275 0 276 58 -3 57 -3 3 -272z m-668 -83 l0 -190 -60 0
-60 0 0 190 0 190 60 0 60 0 0 -190z m338 -42 l3 -148 -66 0 -65 0 0 143 c0
79 3 147 7 151 4 4 32 6 63 4 l55 -3 3 -147z m-670 -30 l3 -118 -66 0 -65 0 0
113 c0 63 3 117 7 121 4 4 32 6 63 4 l55 -3 3 -117z m-1102 79 c24 -21 25 -26
14 -48 -16 -30 -37 -44 -71 -48 -5 0 -7 -6 -3 -13 4 -7 3 -8 -4 -4 -7 4 -12
16 -12 26 0 10 -4 22 -10 25 -17 10 -11 25 9 25 11 0 23 5 27 11 4 8 -1 9 -17
5 -23 -7 -23 -6 -6 8 22 17 43 11 58 -16 8 -16 8 -23 -2 -30 -11 -8 -11 -9 1
-5 22 6 19 39 -6 60 -25 19 -50 22 -59 7 -3 -5 -12 -10 -18 -10 -22 1 26 30
49 30 13 0 35 -10 50 -23z m-196 -206 c0 -11 -3 -22 -7 -24 -5 -3 -8 6 -8 19
0 13 3 24 8 24 4 0 7 -9 7 -19z m70 -15 c0 -6 -5 -4 -10 4 -6 10 -10 11 -10 3
0 -7 -9 -13 -20 -13 -14 0 -18 5 -13 16 5 13 7 13 14 2 7 -10 9 -8 9 6 0 15 3
16 15 6 8 -7 15 -18 15 -24z m65 9 c0 -10 -6 -20 -12 -22 -8 -3 -13 5 -13 22
0 17 5 25 13 23 6 -3 12 -13 12 -23z m35 6 c0 -6 -4 -13 -10 -16 -5 -3 -10 1
-10 9 0 9 5 16 10 16 6 0 10 -4 10 -9z m38 -12 c3 -12 2 -12 -6 0 -8 11 -10
11 -15 0 -4 -10 -6 -8 -6 4 -1 21 21 18 27 -4z m68 9 c5 -7 3 -8 -6 -3 -10 6
-12 4 -7 -8 4 -11 2 -14 -9 -10 -11 4 -12 9 -3 19 14 17 16 17 25 2z m27 -13
c-3 -9 -8 -14 -10 -11 -3 3 -2 9 2 15 9 16 15 13 8 -4z m-353 -309 c0 -3 -4
-8 -10 -11 -5 -3 -10 -1 -10 4 0 6 5 11 10 11 6 0 10 -2 10 -4z m100 -26 c2
18 4 20 7 8 4 -18 23 -25 23 -10 0 4 8 8 18 8 10 0 18 -7 18 -16 0 -11 -11
-15 -41 -14 -35 1 -40 4 -42 25 l-2 24 8 -25 9 -25 2 25z m227 13 c-4 -3 -2
-12 4 -19 7 -8 6 -14 -2 -20 -7 -4 -9 -3 -5 4 3 6 2 13 -4 17 -10 6 -5 25 7
25 4 0 3 -3 0 -7z m-42 -13 c3 -6 -1 -7 -9 -4 -18 7 -21 14 -7 14 6 0 13 -4
16 -10z m82 -12 c-3 -8 -6 -5 -6 6 -1 11 2 17 5 13 3 -3 4 -12 1 -19z m39 10
c4 -7 3 -8 -4 -4 -7 4 -12 2 -12 -5 0 -7 -3 -10 -6 -6 -6 5 3 27 11 27 2 0 7
-5 11 -12z m-201 -8 c3 -5 1 -10 -4 -10 -6 0 -11 5 -11 10 0 6 2 10 4 10 3 0
8 -4 11 -10z m-210 -10 c3 -5 1 -10 -4 -10 -6 0 -11 5 -11 10 0 6 2 10 4 10 3
0 8 -4 11 -10z"/>
<path d="M2970 9455 l-35 -35 -54 15 c-70 18 -83 10 -34 -23 21 -14 40 -26 42
-28 11 -9 -32 -54 -52 -54 -22 0 -22 -1 3 -20 24 -18 25 -18 32 0 6 16 37 40
52 40 2 0 14 -16 26 -35 12 -19 25 -35 30 -35 4 0 2 27 -5 59 l-12 60 33 32
c35 34 44 59 21 59 -7 0 -28 -16 -47 -35z"/>
<path d="M3904 9365 c-9 -22 22 -53 37 -38 15 15 7 47 -14 51 -9 2 -20 -4 -23
-13z"/>
<path d="M3210 9395 c0 -16 6 -25 15 -25 21 0 31 30 14 41 -23 14 -29 11 -29
-16z"/>
<path d="M4038 9419 c-35 -20 -16 -79 25 -79 17 0 18 2 6 16 -8 10 -15 12 -17
5 -6 -19 -22 -1 -22 25 0 22 4 25 28 22 21 -2 27 -8 25 -25 -2 -13 2 -23 7
-23 18 0 11 49 -9 60 -23 12 -22 12 -43 -1z"/>
<path d="M7997 9394 c-11 -11 -8 -52 4 -60 6 -3 18 1 27 10 13 12 14 21 6 33
-12 20 -27 26 -37 17z"/>
<path d="M9210 9400 c0 -33 7 -37 35 -16 16 12 17 16 6 30 -22 26 -41 19 -41
-14z"/>
<path d="M9980 9405 c0 -18 5 -25 19 -25 23 0 34 23 18 39 -19 19 -37 12 -37
-14z"/>
<path d="M16060 9360 c0 -11 7 -20 15 -20 8 0 15 9 15 20 0 11 -7 20 -15 20
-8 0 -15 -9 -15 -20z"/>
<path d="M11210 9370 c0 -43 2 -45 31 -30 21 12 25 40 7 58 -24 24 -38 13 -38
-28z"/>
<path d="M14810 9370 c0 -40 5 -46 26 -32 27 18 19 72 -11 72 -11 0 -15 -12
-15 -40z"/>
<path d="M3333 9343 c-18 -6 -16 -23 1 -23 17 0 30 16 19 23 -5 2 -14 2 -20 0z"/>
<path d="M3686 9383 c-11 -11 -6 -23 9 -23 8 0 15 4 15 9 0 13 -16 22 -24 14z"/>
<path d="M7034 9386 c-10 -26 0 -51 21 -51 16 0 20 7 20 30 0 33 -30 49 -41
21z"/>
<path d="M7220 9385 c-11 -13 -9 -15 15 -15 16 0 25 5 23 12 -7 19 -24 20 -38
3z"/>
<path d="M8090 9385 c-11 -13 -9 -15 15 -15 16 0 25 5 23 12 -7 19 -24 20 -38
3z"/>
<path d="M8717 9394 c-13 -13 -7 -24 14 -24 11 0 19 5 17 12 -5 14 -22 21 -31
12z"/>
<path d="M9367 9394 c-13 -13 -7 -24 14 -24 11 0 19 5 17 12 -5 14 -22 21 -31
12z"/>
<path d="M9570 9385 c-11 -13 -9 -15 15 -15 16 0 25 5 23 12 -7 19 -24 20 -38
3z"/>
<path d="M10077 9394 c-13 -13 -7 -24 14 -24 11 0 19 5 17 12 -5 14 -22 21
-31 12z"/>
<path d="M10437 9394 c-13 -13 -7 -24 14 -24 11 0 19 5 17 12 -5 14 -22 21
-31 12z"/>
<path d="M11315 9380 c-3 -5 1 -10 10 -10 9 0 13 5 10 10 -3 6 -8 10 -10 10
-2 0 -7 -4 -10 -10z"/>
<path d="M14905 9380 c-3 -5 3 -10 15 -10 12 0 18 5 15 10 -3 6 -10 10 -15 10
-5 0 -12 -4 -15 -10z"/>
<path d="M15117 9384 c-4 -4 -7 -18 -7 -31 0 -28 23 -27 28 1 4 20 -11 40 -21
30z"/>
<path d="M15948 9373 c7 -3 16 -2 19 1 4 3 -2 6 -13 5 -11 0 -14 -3 -6 -6z"/>
<path d="M6590 8120 l0 -140 38 1 c98 1 143 47 143 145 0 91 -43 134 -133 134
l-48 0 0 -140z"/>
<path d="M11671 8141 c-61 -61 -12 -190 62 -162 33 13 47 39 47 89 0 75 -64
118 -109 73z"/>
<path d="M7900 8043 c-71 -13 -67 -73 4 -73 28 0 56 29 56 58 0 22 -8 24 -60
15z"/>
<path d="M10995 8158 c-23 -13 -35 -28 -35 -45 0 -9 20 -13 65 -13 72 0 78 8
40 45 -27 28 -40 30 -70 13z"/>
<path d="M12025 8145 c-38 -37 -32 -45 40 -45 72 0 83 12 45 50 -27 27 -56 25
-85 -5z"/>
<path d="M7237 7463 c-14 -13 -7 -61 9 -67 20 -8 44 10 44 33 0 30 -35 52 -53
34z"/>
<path d="M9106 7468 c-9 -35 -8 -38 14 -38 11 0 20 3 20 8 0 19 -13 52 -20 52
-4 0 -10 -10 -14 -22z"/>
<path d="M9204 7445 c-9 -36 17 -65 41 -45 23 19 15 64 -12 68 -17 3 -24 -3
-29 -23z"/>
<path d="M10437 7464 c-12 -13 -8 -51 8 -64 21 -18 47 5 43 39 -3 26 -35 41
-51 25z"/>
<path d="M10704 7445 c-9 -36 17 -65 41 -45 23 19 15 64 -12 68 -17 3 -24 -3
-29 -23z"/>
<path d="M9944 7419 c-11 -18 13 -34 31 -19 8 7 15 16 15 21 0 13 -38 11 -46
-2z"/>
<path d="M10824 7419 c-11 -18 13 -34 31 -19 8 7 15 16 15 21 0 13 -38 11 -46
-2z"/>
<path d="M7347 7456 c-5 -12 1 -16 24 -16 20 0 29 4 27 13 -7 18 -45 20 -51 3z"/>
<path d="M7607 7456 c-5 -12 1 -16 24 -16 20 0 29 4 27 13 -7 18 -45 20 -51 3z"/>
<path d="M8227 7464 c-14 -14 -6 -24 19 -24 16 0 24 5 22 13 -5 14 -31 21 -41
11z"/>
<path d="M8417 7463 c-15 -14 -6 -23 23 -23 22 0 28 4 24 15 -6 15 -35 20 -47
8z"/>
<path d="M9397 7464 c-14 -14 -6 -24 19 -24 16 0 24 5 22 13 -5 14 -31 21 -41
11z"/>
<path d="M9697 7464 c-14 -14 -6 -24 19 -24 16 0 24 5 22 13 -5 14 -31 21 -41
11z"/>
<path d="M10057 7463 c-14 -14 -7 -61 10 -67 18 -7 43 16 43 39 0 25 -37 44
-53 28z"/>
<path d="M11170 7451 c-13 -25 -13 -27 5 -45 29 -29 65 7 45 45 -14 24 -36 24
-50 0z"/>
<path d="M11367 7456 c-5 -12 1 -16 24 -16 20 0 29 4 27 13 -7 18 -45 20 -51
3z"/>
<path d="M11620 7451 c-13 -25 -13 -27 5 -45 29 -29 65 7 45 45 -14 24 -36 24
-50 0z"/>
<path d="M12077 7463 c-15 -14 -6 -23 23 -23 22 0 28 4 24 15 -6 15 -35 20
-47 8z"/>
<path d="M10257 7183 c-13 -12 -7 -50 9 -63 22 -19 49 9 40 44 -6 25 -33 35
-49 19z"/>
<path d="M10874 7165 c-9 -36 17 -65 41 -45 23 19 15 64 -12 68 -17 3 -24 -3
-29 -23z"/>
<path d="M7124 7139 c-11 -18 13 -34 31 -19 8 7 15 16 15 21 0 13 -38 11 -46
-2z"/>
<path d="M7714 7139 c-11 -18 13 -34 31 -19 8 7 15 16 15 21 0 13 -38 11 -46
-2z"/>
<path d="M9094 7139 c-11 -18 13 -34 31 -19 8 7 15 16 15 21 0 13 -38 11 -46
-2z"/>
<path d="M7397 7183 c-15 -14 -6 -23 23 -23 22 0 28 4 24 15 -6 15 -35 20 -47
8z"/>
<path d="M8287 7184 c-14 -14 -6 -24 19 -24 16 0 24 5 22 13 -5 14 -31 21 -41
11z"/>
<path d="M8667 7184 c-12 -13 -8 -51 8 -64 21 -18 47 5 43 39 -3 26 -35 41
-51 25z"/>
<path d="M8847 7184 c-14 -14 -6 -24 19 -24 16 0 24 5 22 13 -5 14 -31 21 -41
11z"/>
<path d="M9747 7176 c-5 -12 1 -16 24 -16 20 0 29 4 27 13 -7 18 -45 20 -51 3z"/>
<path d="M9917 7183 c-15 -14 -6 -23 23 -23 22 0 28 4 24 15 -6 15 -35 20 -47
8z"/>
<path d="M10650 7171 c-13 -25 -13 -27 5 -45 29 -29 65 7 45 45 -14 24 -36 24
-50 0z"/>
<path d="M10997 7184 c-14 -14 -6 -24 19 -24 16 0 24 5 22 13 -5 14 -31 21
-41 11z"/>
<path d="M11257 7184 c-14 -14 -6 -24 19 -24 16 0 24 5 22 13 -5 14 -31 21
-41 11z"/>
<path d="M11550 7140 c-11 -6 -12 -12 -4 -20 13 -13 44 -2 44 16 0 16 -18 18
-40 4z"/>
<path d="M8580 6440 c0 -5 7 -10 15 -10 8 0 15 5 15 10 0 6 -7 10 -15 10 -8 0
-15 -4 -15 -10z"/>
<path d="M8045 6480 c-3 -5 3 -10 15 -10 12 0 18 5 15 10 -3 6 -10 10 -15 10
-5 0 -12 -4 -15 -10z"/>
<path d="M8815 6480 c-3 -5 3 -10 15 -10 12 0 18 5 15 10 -3 6 -10 10 -15 10
-5 0 -12 -4 -15 -10z"/>
<path d="M10295 6470 c-4 -6 5 -10 20 -10 15 0 24 4 20 10 -3 6 -12 10 -20 10
-8 0 -17 -4 -20 -10z"/>
<path d="M10840 6432 c0 -14 11 -21 26 -15 21 8 17 23 -6 23 -11 0 -20 -4 -20
-8z"/>
<path d="M11110 6470 c0 -5 9 -10 20 -10 11 0 20 5 20 10 0 6 -9 10 -20 10
-11 0 -20 -4 -20 -10z"/>
<path d="M5632 5378 c-21 -21 -13 -38 18 -38 25 0 30 4 30 25 0 27 -26 35 -48
13z"/>
<path d="M5700 5365 c0 -21 5 -25 30 -25 31 0 39 17 18 38 -22 22 -48 14 -48
-13z"/>
<path d="M5610 5275 l0 -55 80 0 80 0 0 55 0 55 -80 0 -80 0 0 -55z"/>
<path d="M13291 5341 c-18 -11 -10 -45 12 -49 12 -3 17 3 17 22 0 29 -10 38
-29 27z"/>
<path d="M8710 5340 c0 -19 7 -20 90 -20 83 0 90 1 90 20 0 19 -7 20 -90 20
-83 0 -90 -1 -90 -20z"/>
<path d="M8710 5270 l0 -40 90 0 90 0 0 40 0 40 -90 0 -90 0 0 -40z"/>
<path d="M6974 5295 c-7 -18 3 -35 22 -35 8 0 14 10 14 25 0 27 -27 35 -36 10z"/>
<path d="M6887 5310 c-3 -13 0 -20 9 -20 15 0 19 26 5 34 -5 3 -11 -3 -14 -14z"/>
<path d="M10090 5315 c0 -27 1 -28 24 -19 24 9 20 44 -4 44 -15 0 -20 -7 -20
-25z"/>
<path d="M12405 5340 c-3 -5 3 -10 15 -10 12 0 18 5 15 10 -3 6 -10 10 -15 10
-5 0 -12 -4 -15 -10z"/>
<path d="M12925 5340 c-3 -5 3 -10 15 -10 12 0 18 5 15 10 -3 6 -10 10 -15 10
-5 0 -12 -4 -15 -10z"/>
<path d="M13625 5340 c-3 -5 3 -10 15 -10 12 0 18 5 15 10 -3 6 -10 10 -15 10
-5 0 -12 -4 -15 -10z"/>
<path d="M6320 5305 c-10 -13 -9 -15 9 -15 11 0 21 4 21 9 0 18 -18 21 -30 6z"/>
<path d="M6490 5305 c-10 -13 -9 -15 9 -15 11 0 21 4 21 9 0 18 -18 21 -30 6z"/>
<path d="M7130 5300 c0 -5 9 -10 20 -10 11 0 20 5 20 10 0 6 -9 10 -20 10 -11
0 -20 -4 -20 -10z"/>
<path d="M7390 5305 c-10 -13 -9 -15 9 -15 11 0 21 4 21 9 0 18 -18 21 -30 6z"/>
<path d="M9217 5274 c-8 -8 1 -24 14 -24 5 0 9 7 9 15 0 15 -12 20 -23 9z"/>
<path d="M9482 5283 c4 -36 33 -39 33 -3 0 16 -6 26 -18 28 -15 3 -18 -2 -15
-25z"/>
<path d="M9575 5269 c-4 -6 -5 -13 -2 -16 7 -7 27 6 27 18 0 12 -17 12 -25 -2z"/>
<path d="M9720 5300 c0 -5 7 -10 15 -10 8 0 15 5 15 10 0 6 -7 10 -15 10 -8 0
-15 -4 -15 -10z"/>
<path d="M9960 5300 c0 -5 7 -10 15 -10 8 0 15 5 15 10 0 6 -7 10 -15 10 -8 0
-15 -4 -15 -10z"/>
<path d="M10250 5300 c0 -5 7 -10 15 -10 8 0 15 5 15 10 0 6 -7 10 -15 10 -8
0 -15 -4 -15 -10z"/>
<path d="M10460 5300 c0 -5 7 -10 15 -10 8 0 15 5 15 10 0 6 -7 10 -15 10 -8
0 -15 -4 -15 -10z"/>
<path d="M8920 4230 c0 -5 5 -10 10 -10 6 0 10 5 10 10 0 6 -4 10 -10 10 -5 0
-10 -4 -10 -10z"/>
<path d="M6215 3911 c-3 -5 -1 -12 5 -16 5 -3 10 1 10 9 0 18 -6 21 -15 7z"/>
<path d="M6710 3580 c0 -33 11 -38 30 -15 15 18 6 45 -15 45 -10 0 -15 -10
-15 -30z"/>
<path d="M7015 3580 c-7 -12 2 -30 16 -30 5 0 9 9 9 20 0 21 -15 27 -25 10z"/>
<path d="M7285 3580 c-8 -13 4 -32 16 -25 12 8 12 35 0 35 -6 0 -13 -4 -16
-10z"/>
<path d="M7397 3603 c-11 -10 -8 -41 4 -49 16 -9 41 20 33 39 -6 17 -25 22
-37 10z"/>
<path d="M7090 3570 c0 -13 5 -20 13 -17 6 2 12 10 12 17 0 7 -6 15 -12 18 -8
2 -13 -5 -13 -18z"/>
<path d="M7558 3583 c7 -3 16 -2 19 1 4 3 -2 6 -13 5 -11 0 -14 -3 -6 -6z"/>
<path d="M6805 3560 c-3 -5 -1 -10 4 -10 6 0 11 5 11 10 0 6 -2 10 -4 10 -3 0
-8 -4 -11 -10z"/>
<path d="M8900 2900 c0 -13 5 -20 13 -17 6 2 12 10 12 17 0 7 -6 15 -12 18 -8
2 -13 -5 -13 -18z"/>
<path d="M12025 2880 c4 -6 11 -8 16 -5 14 9 11 15 -7 15 -8 0 -12 -5 -9 -10z"/>
<path d="M11465 2390 c3 -5 10 -10 16 -10 5 0 9 5 9 10 0 6 -7 10 -16 10 -8 0
-12 -4 -9 -10z"/>
<path d="M6956 2381 c-4 -7 -5 -15 -2 -18 9 -9 19 4 14 18 -4 11 -6 11 -12 0z"/>
<path d="M7010 2370 c0 -19 3 -21 12 -12 9 9 9 15 0 24 -9 9 -12 7 -12 -12z"/>
<path d="M7146 2381 c-4 -7 -5 -15 -2 -18 9 -9 19 4 14 18 -4 11 -6 11 -12 0z"/>
<path d="M11940 2376 c0 -9 5 -16 10 -16 6 0 10 4 10 9 0 6 -4 13 -10 16 -5 3
-10 -1 -10 -9z"/>
<path d="M11730 2040 c0 -5 5 -10 10 -10 6 0 10 5 10 10 0 6 -4 10 -10 10 -5
0 -10 -4 -10 -10z"/>
<path d="M11462 1410 c0 -14 2 -19 5 -12 2 6 2 18 0 25 -3 6 -5 1 -5 -13z"/>
<path d="M11622 1410 c0 -14 2 -19 5 -12 2 6 2 18 0 25 -3 6 -5 1 -5 -13z"/>
<path d="M11760 1410 c0 -11 5 -20 10 -20 6 0 10 9 10 20 0 11 -4 20 -10 20
-5 0 -10 -9 -10 -20z"/>
<path d="M11830 1399 c0 -5 5 -7 10 -4 6 3 10 8 10 11 0 2 -4 4 -10 4 -5 0
-10 -5 -10 -11z"/>
<path d="M6042 624 c-7 -8 -8 -14 -3 -14 10 0 25 19 20 25 -2 1 -10 -3 -17
-11z"/>
</g>
</svg>
